AmstelvarItalic-opsz14-wght100-wdth125.ufo
<glyph name="comma" format="2">
  <advance width="496"/>
  <unicode hex="002C"/>
  <outline>
    <contour>
      <point x="73.0" y="-191.0" type="line"/>
      <point x="112.0" y="-164.0"/>
      <point x="194.0" y="-68.0"/>
      <point x="210.0" y="-17.0" type="qcurve"/>
      <point x="166.0" y="-17.0"/>
      <point x="116.0" y="29.0"/>
      <point x="116.0" y="66.0" type="qcurve" smooth="yes"/>
      <point x="116.0" y="102.0"/>
      <point x="168.0" y="156.0"/>
      <point x="207.0" y="156.0" type="qcurve" smooth="yes"/>
      <point x="243.0" y="156.0"/>
      <point x="287.0" y="111.0"/>
      <point x="287.0" y="57.0" type="qcurve" smooth="yes"/>
      <point x="287.0" y="-12.0"/>
      <point x="180.0" y="-178.0"/>
      <point x="102.0" y="-227.0" type="qcurve"/>
    </contour>
  </outline>
</glyph>
<glyph name="slash" format="2">
  <advance width="734"/>
  <unicode hex="002F"/>
  <outline>
    <contour>
      <point x="-81.0" y="-118.0" type="line"/>
      <point x="770.0" y="1555.0" type="line"/>
      <point x="833.0" y="1505.0" type="line"/>
      <point x="-18.0" y="-168.0" type="line"/>
    </contour>
  </outline>
</glyph>
<glyph name="zero" format="2">
  <advance width="1524"/>
  <unicode hex="0030"/>
  <outline>
    <contour>
      <point x="61.0" y="872.0" type="qcurve" smooth="yes"/>
      <point x="120.0" y="1195.0"/>
      <point x="556.0" y="1557.0"/>
      <point x="850.0" y="1515.0" type="qcurve" smooth="yes"/>
      <point x="1143.0" y="1472.0"/>
      <point x="1400.0" y="991.0"/>
      <point x="1344.0" y="659.0" type="qcurve" smooth="yes"/>
      <point x="1285.0" y="316.0"/>
      <point x="840.0" y="-46.0"/>
      <point x="555.0" y="-8.0" type="qcurve" smooth="yes"/>
      <point x="250.0" y="34.0"/>
      <point x="0.0" y="527.0"/>
    </contour>
    <contour>
      <point x="131.0" y="872.0" type="qcurve" smooth="yes"/>
      <point x="65.0" y="561.0"/>
      <point x="304.0" y="118.0"/>
      <point x="559.0" y="81.0" type="qcurve" smooth="yes"/>
      <point x="837.0" y="42.0"/>
      <point x="1226.0" y="354.0"/>
      <point x="1283.0" y="668.0" type="qcurve" smooth="yes"/>
      <point x="1339.0" y="976.0"/>
      <point x="1105.0" y="1394.0"/>
      <point x="847.0" y="1433.0" type="qcurve" smooth="yes"/>
      <point x="588.0" y="1471.0"/>
      <point x="193.0" y="1160.0"/>
    </contour>
  </outline>
</glyph>
<glyph name="five" format="2">
  <advance width="1362"/>
  <unicode hex="0035"/>
  <outline>
    <contour>
      <point x="-22.0" y="192.0" type="qcurve" smooth="yes"/>
      <point x="-29.0" y="248.0"/>
      <point x="10.0" y="342.0"/>
      <point x="55.0" y="359.0" type="qcurve"/>
      <point x="72.0" y="353.0" type="line"/>
      <point x="75.0" y="262.0" type="line" smooth="yes"/>
      <point x="78.0" y="140.0"/>
      <point x="266.0" y="37.0"/>
      <point x="455.0" y="37.0" type="qcurve" smooth="yes"/>
      <point x="702.0" y="37.0"/>
      <point x="1088.0" y="311.0"/>
      <point x="1082.0" y="553.0" type="qcurve" smooth="yes"/>
      <point x="1078.0" y="749.0"/>
      <point x="694.0" y="919.0"/>
      <point x="379.0" y="838.0" type="qcurve" smooth="yes"/>
      <point x="235.0" y="803.0" type="line"/>
      <point x="198.0" y="840.0" type="line"/>
      <point x="376.0" y="1467.0" type="line"/>
      <point x="414.0" y="1500.0" type="line"/>
      <point x="1198.0" y="1500.0" type="line"/>
      <point x="1187.0" y="1442.0" type="line"/>
      <point x="465.0" y="1442.0" type="line"/>
      <point x="452.0" y="1431.0" type="line"/>
      <point x="399.0" y="1241.0"/>
      <point x="312.0" y="913.0"/>
      <point x="276.0" y="873.0" type="qcurve"/>
      <point x="582.0" y="945.0" type="line"/>
      <point x="842.0" y="945.0"/>
      <point x="1131.0" y="761.0"/>
      <point x="1138.0" y="571.0" type="qcurve" smooth="yes"/>
      <point x="1148.0" y="309.0"/>
      <point x="742.0" y="-24.0"/>
      <point x="437.0" y="-24.0" type="qcurve" smooth="yes"/>
      <point x="232.0" y="-24.0"/>
      <point x="-14.0" y="84.0"/>
    </contour>
  </outline>
</glyph>
<glyph name="seven" format="2">
  <advance width="1302"/>
  <unicode hex="0037"/>
  <outline>
    <contour>
      <point x="157.0" y="1222.0" type="line"/>
      <point x="257.0" y="1500.0" type="line"/>
      <point x="1318.0" y="1500.0" type="line"/>
      <point x="1337.0" y="1473.0" type="line"/>
      <point x="987.0" y="1063.0"/>
      <point x="400.0" y="285.0"/>
      <point x="304.0" y="3.0" type="qcurve"/>
      <point x="245.0" y="-32.0" type="line"/>
      <point x="208.0" y="10.0" type="line"/>
      <point x="357.0" y="316.0"/>
      <point x="830.0" y="1033.0"/>
      <point x="1172.0" y="1420.0" type="qcurve"/>
      <point x="1155.0" y="1434.0" type="line"/>
      <point x="337.0" y="1434.0" type="line"/>
      <point x="215.0" y="1222.0" type="line"/>
    </contour>
  </outline>
</glyph>
<glyph name="colon" format="2">
  <advance width="516"/>
  <unicode hex="003A"/>
  <outline>
    <contour>
      <point x="75.0" y="67.0" type="qcurve" smooth="yes"/>
      <point x="75.0" y="103.0"/>
      <point x="125.0" y="156.0"/>
      <point x="164.0" y="156.0" type="qcurve" smooth="yes"/>
      <point x="203.0" y="156.0"/>
      <point x="253.0" y="103.0"/>
      <point x="253.0" y="67.0" type="qcurve" smooth="yes"/>
      <point x="253.0" y="32.0"/>
      <point x="203.0" y="-21.0"/>
      <point x="164.0" y="-21.0" type="qcurve" smooth="yes"/>
      <point x="125.0" y="-21.0"/>
      <point x="75.0" y="32.0"/>
    </contour>
    <contour>
      <point x="176.0" y="825.0" type="qcurve" smooth="yes"/>
      <point x="176.0" y="861.0"/>
      <point x="226.0" y="914.0"/>
      <point x="265.0" y="914.0" type="qcurve" smooth="yes"/>
      <point x="304.0" y="914.0"/>
      <point x="354.0" y="861.0"/>
      <point x="354.0" y="825.0" type="qcurve" smooth="yes"/>
      <point x="354.0" y="790.0"/>
      <point x="304.0" y="737.0"/>
      <point x="265.0" y="737.0" type="qcurve" smooth="yes"/>
      <point x="226.0" y="737.0"/>
      <point x="176.0" y="790.0"/>
    </contour>
  </outline>
</glyph>
<glyph name="semicolon" format="2">
  <advance width="516"/>
  <unicode hex="003B"/>
  <outline>
    <contour>
      <point x="176.0" y="825.0" type="qcurve" smooth="yes"/>
      <point x="176.0" y="861.0"/>
      <point x="226.0" y="914.0"/>
      <point x="265.0" y="914.0" type="qcurve" smooth="yes"/>
      <point x="304.0" y="914.0"/>
      <point x="354.0" y="861.0"/>
      <point x="354.0" y="825.0" type="qcurve" smooth="yes"/>
      <point x="354.0" y="790.0"/>
      <point x="304.0" y="737.0"/>
      <point x="265.0" y="737.0" type="qcurve" smooth="yes"/>
      <point x="226.0" y="737.0"/>
      <point x="176.0" y="790.0"/>
    </contour>
    <contour>
      <point x="35.0" y="-191.0" type="line"/>
      <point x="74.0" y="-164.0"/>
      <point x="156.0" y="-68.0"/>
      <point x="172.0" y="-17.0" type="qcurve"/>
      <point x="128.0" y="-17.0"/>
      <point x="78.0" y="29.0"/>
      <point x="78.0" y="66.0" type="qcurve" smooth="yes"/>
      <point x="78.0" y="102.0"/>
      <point x="130.0" y="156.0"/>
      <point x="169.0" y="156.0" type="qcurve" smooth="yes"/>
      <point x="205.0" y="156.0"/>
      <point x="249.0" y="111.0"/>
      <point x="249.0" y="57.0" type="qcurve" smooth="yes"/>
      <point x="249.0" y="-12.0"/>
      <point x="142.0" y="-178.0"/>
      <point x="64.0" y="-227.0" type="qcurve"/>
    </contour>
  </outline>
</glyph>
<glyph name="less" format="2">
  <advance width="1238"/>
  <unicode hex="003C"/>
  <outline>
    <contour>
      <point x="106.0" y="632.0" type="qcurve"/>
      <point x="49.0" y="599.0"/>
      <point x="859.0" y="1024.0"/>
      <point x="959.0" y="1081.0" type="qcurve" smooth="yes"/>
      <point x="1042.0" y="1128.0"/>
      <point x="1045.0" y="1048.0"/>
      <point x="964.0" y="1004.0" type="qcurve" smooth="yes"/>
      <point x="788.0" y="911.0"/>
      <point x="370.0" y="686.0"/>
      <point x="289.0" y="637.0" type="qcurve"/>
      <point x="352.0" y="595.0"/>
      <point x="691.0" y="356.0"/>
      <point x="833.0" y="268.0" type="qcurve"/>
      <point x="901.0" y="224.0"/>
      <point x="910.0" y="155.0"/>
      <point x="837.0" y="203.0" type="qcurve" smooth="yes"/>
      <point x="756.0" y="257.0"/>
      <point x="82.0" y="654.0"/>
    </contour>
  </outline>
</glyph>
<glyph name="equal" format="2">
  <advance width="1238"/>
  <unicode hex="003D"/>
  <outline>
    <contour>
      <point x="80.0" y="454.0" type="line"/>
      <point x="80.0" y="496.0" type="line"/>
      <point x="560.0" y="492.0" type="line"/>
      <point x="1045.0" y="496.0" type="line"/>
      <point x="1045.0" y="454.0" type="line"/>
      <point x="560.0" y="458.0" type="line"/>
    </contour>
    <contour>
      <point x="80.0" y="746.0" type="line"/>
      <point x="80.0" y="788.0" type="line"/>
      <point x="560.0" y="784.0" type="line"/>
      <point x="1045.0" y="788.0" type="line"/>
      <point x="1045.0" y="746.0" type="line"/>
      <point x="560.0" y="750.0" type="line"/>
    </contour>
  </outline>
</glyph>
<glyph name="greater" format="2">
  <advance width="1238"/>
  <unicode hex="003E"/>
  <outline>
    <contour>
      <point x="1018.0" y="632.0" type="qcurve"/>
      <point x="1056.0" y="658.0"/>
      <point x="282.04477611940297" y="270.1940298507463"/>
      <point x="165.0" y="203.0" type="qcurve" smooth="yes"/>
      <point x="80.0" y="155.0"/>
      <point x="82.0" y="237.0"/>
      <point x="163.0" y="282.0" type="qcurve" smooth="yes"/>
      <point x="334.0" y="372.0"/>
      <point x="766.0" y="597.0"/>
      <point x="835.0" y="637.0" type="qcurve"/>
      <point x="763.0" y="688.0"/>
      <point x="439.0" y="927.0"/>
      <point x="292.0" y="1018.0" type="qcurve"/>
      <point x="224.0" y="1061.0"/>
      <point x="220.0" y="1128.0"/>
      <point x="291.0" y="1081.0" type="qcurve" smooth="yes"/>
      <point x="372.0" y="1025.0"/>
      <point x="1052.0" y="604.0"/>
    </contour>
  </outline>
</glyph>
<glyph name="question" format="2">
  <advance width="1214"/>
  <unicode hex="003F"/>
  <outline>
    <contour>
      <point x="186.0" y="1294.0" type="qcurve" smooth="yes"/>
      <point x="210.0" y="1397.0"/>
      <point x="505.0" y="1540.0"/>
      <point x="751.0" y="1540.0" type="qcurve" smooth="yes"/>
      <point x="967.0" y="1540.0"/>
      <point x="1180.0" y="1381.0"/>
      <point x="1180.0" y="1256.0" type="qcurve" smooth="yes"/>
      <point x="1180.0" y="1112.0"/>
      <point x="1001.0" y="907.0"/>
      <point x="750.0" y="787.0" type="qcurve" smooth="yes"/>
      <point x="629.0" y="729.0"/>
      <point x="399.0" y="597.0"/>
      <point x="374.0" y="522.0" type="qcurve" smooth="yes"/>
      <point x="346.0" y="435.0" type="line"/>
      <point x="281.0" y="435.0" type="line"/>
      <point x="293.0" y="519.0" type="line" smooth="yes"/>
      <point x="304.0" y="593.0"/>
      <point x="522.0" y="767.0"/>
      <point x="730.0" y="872.0" type="qcurve" smooth="yes"/>
      <point x="930.0" y="979.0"/>
      <point x="1076.0" y="1135.0"/>
      <point x="1076.0" y="1243.0" type="qcurve" smooth="yes"/>
      <point x="1076.0" y="1341.0"/>
      <point x="896.0" y="1479.0"/>
      <point x="717.0" y="1479.0" type="qcurve" smooth="yes"/>
      <point x="541.0" y="1479.0"/>
      <point x="313.0" y="1390.0"/>
      <point x="305.0" y="1334.0" type="qcurve" smooth="yes"/>
      <point x="301.0" y="1312.0"/>
      <point x="363.0" y="1273.0"/>
      <point x="368.0" y="1237.0" type="qcurve" smooth="yes"/>
      <point x="371.0" y="1203.0"/>
      <point x="319.0" y="1162.0"/>
      <point x="270.0" y="1162.0" type="qcurve" smooth="yes"/>
      <point x="227.0" y="1162.0"/>
      <point x="173.0" y="1230.0"/>
    </contour>
    <contour>
      <point x="193.0" y="67.0" type="qcurve" smooth="yes"/>
      <point x="193.0" y="103.0"/>
      <point x="243.0" y="156.0"/>
      <point x="282.0" y="156.0" type="qcurve" smooth="yes"/>
      <point x="321.0" y="156.0"/>
      <point x="371.0" y="103.0"/>
      <point x="371.0" y="67.0" type="qcurve" smooth="yes"/>
      <point x="371.0" y="32.0"/>
      <point x="321.0" y="-21.0"/>
      <point x="282.0" y="-21.0" type="qcurve" smooth="yes"/>
      <point x="243.0" y="-21.0"/>
      <point x="193.0" y="32.0"/>
    </contour>
  </outline>
</glyph>
<glyph name="at" format="2">
  <advance width="2068"/>
  <unicode hex="0040"/>
  <outline>
    <contour>
      <point x="481.0" y="566.0" type="qcurve" smooth="yes"/>
      <point x="481.0" y="810.0"/>
      <point x="938.0" y="1170.0"/>
      <point x="1195.0" y="1170.0" type="qcurve" smooth="yes"/>
      <point x="1224.0" y="1170.0"/>
      <point x="1305.0" y="1158.0"/>
      <point x="1326.0" y="1148.0" type="qcurve"/>
      <point x="1410.0" y="1200.0" type="line"/>
      <point x="1456.0" y="1200.0" type="line"/>
      <point x="1476.0" y="1097.0" type="line"/>
      <point x="1327.0" y="623.0" type="line"/>
      <point x="1293.0" y="466.0" type="line"/>
      <point x="1303.0" y="448.0"/>
      <point x="1370.0" y="424.0"/>
      <point x="1411.0" y="424.0" type="qcurve" smooth="yes"/>
      <point x="1569.0" y="424.0"/>
      <point x="1895.0" y="647.0"/>
      <point x="1921.0" y="858.0" type="qcurve" smooth="yes"/>
      <point x="1959.0" y="1154.0"/>
      <point x="1553.0" y="1460.0"/>
      <point x="1170.0" y="1460.0" type="qcurve" smooth="yes"/>
      <point x="788.0" y="1460.0"/>
      <point x="186.0" y="1046.0"/>
      <point x="137.0" y="737.0" type="qcurve" smooth="yes"/>
      <point x="86.0" y="419.0"/>
      <point x="445.0" y="28.0"/>
      <point x="836.0" y="28.0" type="qcurve" smooth="yes"/>
      <point x="1005.0" y="28.0"/>
      <point x="1269.0" y="106.0"/>
      <point x="1357.0" y="164.0" type="qcurve"/>
      <point x="1384.0" y="108.0" type="line"/>
      <point x="1301.0" y="57.0"/>
      <point x="1019.0" y="-30.0"/>
      <point x="832.0" y="-30.0" type="qcurve" smooth="yes"/>
      <point x="422.0" y="-30.0"/>
      <point x="2.0" y="393.0"/>
      <point x="55.0" y="725.0" type="qcurve" smooth="yes"/>
      <point x="111.0" y="1081.0"/>
      <point x="761.0" y="1520.0"/>
      <point x="1202.0" y="1520.0" type="qcurve" smooth="yes"/>
      <point x="1599.0" y="1520.0"/>
      <point x="2028.0" y="1161.0"/>
      <point x="1990.0" y="863.0" type="qcurve" smooth="yes"/>
      <point x="1960.0" y="627.0"/>
      <point x="1593.0" y="364.0"/>
      <point x="1409.0" y="364.0" type="qcurve" smooth="yes"/>
      <point x="1307.0" y="364.0"/>
      <point x="1203.0" y="447.0"/>
      <point x="1197.0" y="517.0" type="qcurve"/>
      <point x="1088.0" y="432.0"/>
      <point x="855.0" y="351.0"/>
      <point x="747.0" y="356.0" type="qcurve" smooth="yes"/>
      <point x="603.0" y="363.0"/>
      <point x="481.0" y="477.0"/>
    </contour>
    <contour>
      <point x="584.0" y="585.0" type="qcurve" smooth="yes"/>
      <point x="584.0" y="509.0"/>
      <point x="695.0" y="423.0"/>
      <point x="790.0" y="423.0" type="qcurve" smooth="yes"/>
      <point x="938.0" y="423.0"/>
      <point x="1239.0" y="597.0"/>
      <point x="1278.0" y="763.0" type="qcurve" smooth="yes"/>
      <point x="1357.0" y="1039.0" type="line"/>
      <point x="1353.0" y="1077.0"/>
      <point x="1234.0" y="1101.0"/>
      <point x="1182.0" y="1101.0" type="qcurve" smooth="yes"/>
      <point x="933.0" y="1101.0"/>
      <point x="584.0" y="803.0"/>
    </contour>
  </outline>
</glyph>
<glyph name="B" format="2">
  <advance width="1648"/>
  <unicode hex="0042"/>
  <outline>
    <contour>
      <point x="-5.0" y="0.0" type="line"/>
      <point x="0.0" y="48.0" type="line"/>
      <point x="208.0" y="71.0" type="line"/>
      <point x="349.0" y="754.0" type="line"/>
      <point x="480.0" y="1426.0" type="line"/>
      <point x="251.0" y="1453.0" type="line"/>
      <point x="253.0" y="1500.0" type="line"/>
      <point x="1113.0" y="1500.0" type="line" smooth="yes"/>
      <point x="1305.0" y="1500.0"/>
      <point x="1481.0" y="1308.0"/>
      <point x="1467.0" y="1163.0" type="qcurve" smooth="yes"/>
      <point x="1454.0" y="1028.0"/>
      <point x="1312.0" y="833.0"/>
      <point x="1199.0" y="800.0" type="qcurve"/>
      <point x="1198.0" y="793.0" type="line"/>
      <point x="1330.0" y="767.0"/>
      <point x="1467.0" y="575.0"/>
      <point x="1442.0" y="413.0" type="qcurve" smooth="yes"/>
      <point x="1412.0" y="215.0"/>
      <point x="1141.0" y="0.0"/>
      <point x="895.0" y="0.0" type="qcurve" smooth="yes"/>
    </contour>
    <contour>
      <point x="311.0" y="92.0" type="line"/>
      <point x="329.0" y="63.0" type="line"/>
      <point x="909.0" y="63.0" type="line" smooth="yes"/>
      <point x="1097.0" y="63.0"/>
      <point x="1322.0" y="251.0"/>
      <point x="1347.0" y="420.0" type="qcurve" smooth="yes"/>
      <point x="1368.0" y="565.0"/>
      <point x="1229.0" y="753.0"/>
      <point x="1073.0" y="753.0" type="qcurve" smooth="yes"/>
      <point x="441.0" y="753.0" type="line"/>
      <point x="436.0" y="725.0" type="line"/>
    </contour>
    <contour>
      <point x="457.0" y="840.0" type="line"/>
      <point x="452.0" y="817.0" type="line"/>
      <point x="1049.0" y="817.0" type="line" smooth="yes"/>
      <point x="1178.0" y="817.0"/>
      <point x="1357.0" y="1001.0"/>
      <point x="1373.0" y="1155.0" type="qcurve" smooth="yes"/>
      <point x="1386.0" y="1283.0"/>
      <point x="1252.0" y="1440.0"/>
      <point x="1129.0" y="1440.0" type="qcurve" smooth="yes"/>
      <point x="604.0" y="1440.0" type="line"/>
      <point x="575.0" y="1422.0" type="line"/>
    </contour>
  </outline>
</glyph>
<glyph name="D" format="2">
  <advance width="1933"/>
  <unicode hex="0044"/>
  <outline>
    <contour>
      <point x="-6.0" y="0.0" type="line"/>
      <point x="-1.0" y="48.0" type="line"/>
      <point x="207.0" y="72.0" type="line"/>
      <point x="354.0" y="754.0" type="line"/>
      <point x="477.0" y="1426.0" type="line"/>
      <point x="260.0" y="1452.0" type="line"/>
      <point x="261.0" y="1500.0" type="line"/>
      <point x="1003.0" y="1500.0" type="line" smooth="yes"/>
      <point x="1400.0" y="1500.0"/>
      <point x="1826.0" y="1097.0"/>
      <point x="1784.0" y="760.0" type="qcurve" smooth="yes"/>
      <point x="1741.0" y="414.0"/>
      <point x="1205.0" y="0.0"/>
      <point x="743.0" y="0.0" type="qcurve" smooth="yes"/>
    </contour>
    <contour>
      <point x="309.0" y="79.0" type="line"/>
      <point x="339.0" y="75.0"/>
      <point x="713.0" y="66.0"/>
      <point x="800.0" y="67.0" type="qcurve" smooth="yes"/>
      <point x="1146.0" y="71.0"/>
      <point x="1631.0" y="441.0"/>
      <point x="1679.0" y="764.0" type="qcurve" smooth="yes"/>
      <point x="1725.0" y="1072.0"/>
      <point x="1344.0" y="1447.0"/>
      <point x="1009.0" y="1443.0" type="qcurve" smooth="yes"/>
      <point x="918.0" y="1441.0"/>
      <point x="621.0" y="1434.0"/>
      <point x="576.0" y="1429.0" type="qcurve"/>
      <point x="444.0" y="754.0" type="line"/>
    </contour>
  </outline>
</glyph>
<glyph name="J" format="2">
  <advance width="786"/>
  <unicode hex="004A"/>
  <outline>
    <contour>
      <point x="-188.0" y="-225.0" type="qcurve"/>
      <point x="-171.0" y="-168.0" type="line"/>
      <point x="-151.0" y="-176.0"/>
      <point x="-76.0" y="-188.0"/>
      <point x="-18.0" y="-188.0" type="qcurve" smooth="yes"/>
      <point x="74.0" y="-188.0"/>
      <point x="161.0" y="-45.0"/>
      <point x="192.0" y="112.0" type="qcurve" smooth="yes"/>
      <point x="317.0" y="754.0" type="line"/>
      <point x="434.0" y="1427.0" type="line"/>
      <point x="222.0" y="1453.0" type="line"/>
      <point x="224.0" y="1500.0" type="line"/>
      <point x="761.0" y="1500.0" type="line"/>
      <point x="745.0" y="1453.0" type="line"/>
      <point x="533.0" y="1427.0" type="line"/>
      <point x="405.0" y="754.0" type="line"/>
      <point x="303.0" y="164.0" type="line" smooth="yes"/>
      <point x="262.0" y="-79.0"/>
      <point x="109.0" y="-260.0"/>
      <point x="-15.0" y="-260.0" type="qcurve" smooth="yes"/>
      <point x="-83.0" y="-260.0"/>
      <point x="-168.0" y="-237.0"/>
    </contour>
  </outline>
</glyph>
<glyph name="K" format="2">
  <advance width="1767"/>
  <unicode hex="004B"/>
  <outline>
    <contour>
      <point x="-10.0" y="0.0" type="line"/>
      <point x="10.0" y="48.0" type="line"/>
      <point x="218.0" y="73.0" type="line"/>
      <point x="382.0" y="858.0" type="line"/>
      <point x="479.0" y="1427.0" type="line"/>
      <point x="251.0" y="1452.0" type="line"/>
      <point x="252.0" y="1500.0" type="line"/>
      <point x="811.0" y="1500.0" type="line"/>
      <point x="793.0" y="1452.0" type="line"/>
      <point x="577.0" y="1427.0" type="line"/>
      <point x="464.0" y="826.0" type="line"/>
      <point x="311.0" y="73.0" type="line"/>
      <point x="542.0" y="48.0" type="line"/>
      <point x="537.0" y="0.0" type="line"/>
    </contour>
    <contour>
      <point x="342.0" y="582.0" type="line"/>
      <point x="372.0" y="679.0" type="line"/>
      <point x="1386.0" y="1442.0" type="line"/>
      <point x="1194.0" y="1450.0" type="line"/>
      <point x="1198.0" y="1500.0" type="line"/>
      <point x="1719.0" y="1500.0" type="line"/>
      <point x="1715.0" y="1450.0" type="line"/>
      <point x="1533.0" y="1442.0" type="line"/>
    </contour>
    <contour>
      <point x="709.0" y="903.0" type="line"/>
      <point x="792.0" y="942.0" type="line"/>
      <point x="1393.0" y="73.0" type="line"/>
      <point x="1591.0" y="51.0" type="line"/>
      <point x="1586.0" y="0.0" type="line"/>
      <point x="1044.0" y="0.0" type="line"/>
      <point x="1049.0" y="51.0" type="line"/>
      <point x="1264.0" y="73.0" type="line"/>
    </contour>
  </outline>
</glyph>
<glyph name="P" format="2">
  <advance width="1488"/>
  <unicode hex="0050"/>
  <outline>
    <contour>
      <point x="-4.0" y="0.0" type="line"/>
      <point x="11.0" y="48.0" type="line"/>
      <point x="218.0" y="70.0" type="line"/>
      <point x="365.0" y="784.0" type="line"/>
      <point x="480.0" y="1426.0" type="line"/>
      <point x="251.0" y="1453.0" type="line"/>
      <point x="253.0" y="1500.0" type="line"/>
      <point x="984.0" y="1500.0" type="line" smooth="yes"/>
      <point x="1221.0" y="1501.0"/>
      <point x="1434.0" y="1246.0"/>
      <point x="1402.0" y="1039.0" type="qcurve" smooth="yes"/>
      <point x="1372.0" y="845.0"/>
      <point x="1051.0" y="642.0"/>
      <point x="779.0" y="642.0" type="qcurve" smooth="yes"/>
      <point x="680.0" y="642.0"/>
      <point x="439.0" y="657.0"/>
      <point x="392.0" y="678.0" type="qcurve"/>
      <point x="399.0" y="744.0" type="line"/>
      <point x="450.0" y="731.0"/>
      <point x="722.0" y="707.0"/>
      <point x="795.0" y="707.0" type="qcurve" smooth="yes"/>
      <point x="1010.0" y="707.0"/>
      <point x="1291.0" y="861.0"/>
      <point x="1323.0" y="1042.0" type="qcurve" smooth="yes"/>
      <point x="1352.0" y="1205.0"/>
      <point x="1186.0" y="1440.0"/>
      <point x="988.0" y="1440.0" type="qcurve" smooth="yes"/>
      <point x="606.0" y="1440.0" type="line"/>
      <point x="580.0" y="1418.0" type="line"/>
      <point x="453.0" y="764.0" type="line"/>
      <point x="319.0" y="78.0" type="line"/>
      <point x="521.0" y="48.0" type="line"/>
      <point x="515.0" y="0.0" type="line"/>
    </contour>
  </outline>
</glyph>
<glyph name="Q" format="2">
  <advance width="2000"/>
  <unicode hex="0051"/>
  <outline>
    <contour>
      <point x="84.0" y="875.0" type="qcurve" smooth="yes"/>
      <point x="153.0" y="1226.0"/>
      <point x="772.0" y="1567.0"/>
      <point x="1147.0" y="1520.0" type="qcurve" smooth="yes"/>
      <point x="1537.0" y="1470.0"/>
      <point x="1916.0" y="994.0"/>
      <point x="1856.0" y="660.0" type="qcurve" smooth="yes"/>
      <point x="1787.0" y="279.0"/>
      <point x="1210.0" y="-77.0"/>
      <point x="798.0" y="-41.0" type="qcurve" smooth="yes"/>
      <point x="400.0" y="-8.0"/>
      <point x="13.0" y="507.0"/>
    </contour>
    <contour>
      <point x="176.0" y="868.0" type="qcurve" smooth="yes"/>
      <point x="106.0" y="524.0"/>
      <point x="468.0" y="82.0"/>
      <point x="803.0" y="49.0" type="qcurve" smooth="yes"/>
      <point x="1169.0" y="12.0"/>
      <point x="1703.0" y="332.0"/>
      <point x="1765.0" y="649.0" type="qcurve" smooth="yes"/>
      <point x="1822.0" y="959.0"/>
      <point x="1496.0" y="1397.0"/>
      <point x="1149.0" y="1444.0" type="qcurve" smooth="yes"/>
      <point x="800.0" y="1493.0"/>
      <point x="241.0" y="1192.0"/>
    </contour>
    <contour>
      <point x="139.0" y="-232.0" type="line"/>
      <point x="209.0" y="-164.0"/>
      <point x="399.0" y="-69.0"/>
      <point x="513.0" y="-60.0" type="qcurve"/>
      <point x="590.0" y="11.0"/>
      <point x="718.0" y="134.0"/>
      <point x="784.0" y="177.0" type="qcurve" smooth="yes"/>
      <point x="794.0" y="186.0"/>
      <point x="808.0" y="201.0"/>
      <point x="817.0" y="204.0" type="qcurve"/>
      <point x="838.0" y="197.0"/>
      <point x="886.0" y="182.0"/>
      <point x="897.0" y="173.0" type="qcurve"/>
      <point x="887.0" y="164.0"/>
      <point x="872.0" y="153.0"/>
      <point x="860.0" y="143.0" type="qcurve" smooth="yes"/>
      <point x="806.0" y="113.0"/>
      <point x="670.0" y="-13.0"/>
      <point x="603.0" y="-74.0" type="qcurve"/>
      <point x="1352.0" y="-329.0" type="line" smooth="yes"/>
      <point x="1445.0" y="-327.0"/>
      <point x="1631.0" y="-238.0"/>
      <point x="1699.0" y="-157.0" type="qcurve"/>
      <point x="1756.0" y="-179.0" type="line"/>
      <point x="1690.0" y="-270.0"/>
      <point x="1453.0" y="-400.0"/>
      <point x="1308.0" y="-400.0" type="qcurve"/>
      <point x="538.0" y="-139.0" type="line"/>
      <point x="428.0" y="-134.0"/>
      <point x="255.0" y="-201.0"/>
      <point x="173.0" y="-266.0" type="qcurve"/>
    </contour>
  </outline>
</glyph>
<glyph name="R" format="2">
  <advance width="1613"/>
  <unicode hex="0052"/>
  <outline>
    <contour>
      <point x="15.0" y="0.0" type="line"/>
      <point x="20.0" y="48.0" type="line"/>
      <point x="228.0" y="71.0" type="line"/>
      <point x="374.0" y="784.0" type="line"/>
      <point x="480.0" y="1426.0" type="line"/>
      <point x="251.0" y="1453.0" type="line"/>
      <point x="253.0" y="1500.0" type="line"/>
      <point x="926.0" y="1500.0" type="line" smooth="yes"/>
      <point x="1177.0" y="1502.0"/>
      <point x="1397.0" y="1280.0"/>
      <point x="1387.0" y="1102.0" type="qcurve" smooth="yes"/>
      <point x="1377.0" y="919.0"/>
      <point x="1091.0" y="701.0"/>
      <point x="819.0" y="701.0" type="qcurve" smooth="yes"/>
      <point x="739.0" y="701.0"/>
      <point x="464.0" y="700.0"/>
      <point x="398.0" y="705.0" type="qcurve"/>
      <point x="415.0" y="776.0" type="line"/>
      <point x="500.0" y="776.0" type="line"/>
      <point x="800.0" y="776.0" type="line" smooth="yes"/>
      <point x="1023.0" y="776.0"/>
      <point x="1298.0" y="967.0"/>
      <point x="1308.0" y="1116.0" type="qcurve" smooth="yes"/>
      <point x="1318.0" y="1254.0"/>
      <point x="1139.0" y="1440.0"/>
      <point x="974.0" y="1440.0" type="qcurve" smooth="yes"/>
      <point x="609.0" y="1440.0" type="line"/>
      <point x="576.0" y="1418.0" type="line"/>
      <point x="458.0" y="754.0" type="line"/>
      <point x="328.0" y="74.0" type="line"/>
      <point x="541.0" y="48.0" type="line"/>
      <point x="545.0" y="0.0" type="line"/>
    </contour>
    <contour>
      <point x="890.0" y="767.0" type="line"/>
      <point x="972.0" y="786.0" type="line"/>
      <point x="994.0" y="718.0" type="line" smooth="yes"/>
      <point x="1056.0" y="485.0"/>
      <point x="1262.0" y="35.0"/>
      <point x="1523.0" y="48.0" type="qcurve"/>
      <point x="1505.0" y="0.0" type="line"/>
      <point x="1426.0" y="0.0" type="line" smooth="yes"/>
      <point x="1190.0" y="0.0"/>
      <point x="960.0" y="435.0"/>
      <point x="906.0" y="701.0" type="qcurve" smooth="yes"/>
    </contour>
  </outline>
</glyph>
<glyph name="W" format="2">
  <advance width="2794"/>
  <unicode hex="0057"/>
  <outline>
    <contour>
      <point x="153.0" y="1453.0" type="line"/>
      <point x="156.0" y="1500.0" type="line"/>
      <point x="764.0" y="1500.0" type="line"/>
      <point x="762.0" y="1453.0" type="line"/>
      <point x="488.0" y="1424.0" type="line"/>
      <point x="553.0" y="773.0" type="line"/>
      <point x="636.0" y="38.0" type="line"/>
      <point x="649.0" y="38.0" type="line"/>
      <point x="1101.0" y="719.0" type="line"/>
      <point x="1386.0" y="1113.0" type="line"/>
      <point x="1391.0" y="966.0" type="line"/>
      <point x="1176.0" y="669.0" type="line"/>
      <point x="695.0" y="-5.0" type="line"/>
      <point x="563.0" y="-5.0" type="line"/>
      <point x="468.0" y="749.0" type="line"/>
      <point x="390.0" y="1423.0" type="line"/>
    </contour>
    <contour>
      <point x="1054.0" y="1446.0" type="line"/>
      <point x="1058.0" y="1500.0" type="line"/>
      <point x="1659.0" y="1500.0" type="line"/>
      <point x="1655.0" y="1454.0" type="line"/>
      <point x="1389.0" y="1416.0" type="line"/>
      <point x="1445.0" y="783.0" type="line"/>
      <point x="1513.0" y="36.0" type="line"/>
      <point x="1528.0" y="36.0" type="line"/>
      <point x="2065.0" y="808.0" type="line"/>
      <point x="2513.0" y="1418.0" type="line"/>
      <point x="2306.0" y="1453.0" type="line"/>
      <point x="2310.0" y="1500.0" type="line"/>
      <point x="2899.0" y="1500.0" type="line"/>
      <point x="2894.0" y="1453.0" type="line"/>
      <point x="2632.0" y="1423.0" type="line"/>
      <point x="2152.0" y="780.0" type="line"/>
      <point x="1577.0" y="-5.0" type="line"/>
      <point x="1447.0" y="-5.0" type="line"/>
      <point x="1365.0" y="763.0" type="line"/>
      <point x="1295.0" y="1415.0" type="line"/>
    </contour>
  </outline>
</glyph>
<glyph name="Y" format="2">
  <advance width="1689"/>
  <unicode hex="0059"/>
  <outline>
    <contour>
      <point x="143.0" y="1454.0" type="line"/>
      <point x="149.0" y="1500.0" type="line"/>
      <point x="681.0" y="1500.0" type="line"/>
      <point x="675.0" y="1454.0" type="line"/>
      <point x="442.0" y="1430.0" type="line"/>
      <point x="623.0" y="1055.0" type="line"/>
      <point x="796.0" y="728.0" type="line"/>
      <point x="1124.0" y="1082.0" type="line"/>
      <point x="1429.0" y="1422.0" type="line"/>
      <point x="1216.0" y="1454.0" type="line"/>
      <point x="1222.0" y="1500.0" type="line"/>
      <point x="1779.0" y="1500.0" type="line"/>
      <point x="1772.0" y="1454.0" type="line"/>
      <point x="1573.0" y="1420.0" type="line"/>
      <point x="1172.0" y="1011.0" type="line"/>
      <point x="820.0" y="647.0" type="line"/>
      <point x="712.0" y="73.0" type="line"/>
      <point x="949.0" y="47.0" type="line"/>
      <point x="945.0" y="0.0" type="line"/>
      <point x="384.0" y="0.0" type="line"/>
      <point x="388.0" y="47.0" type="line"/>
      <point x="629.0" y="73.0" type="line"/>
      <point x="741.0" y="647.0" type="line"/>
      <point x="563.0" y="976.0" type="line"/>
      <point x="319.0" y="1420.0" type="line"/>
    </contour>
  </outline>
</glyph>
<glyph name="grave" format="2">
  <advance width="1024"/>
  <unicode hex="0060"/>
  <outline>
    <contour>
      <point x="467.0" y="1290.0" type="line" smooth="yes"/>
      <point x="418.0" y="1315.0"/>
      <point x="340.0" y="1374.0"/>
      <point x="342.0" y="1400.0" type="qcurve" smooth="yes"/>
      <point x="342.0" y="1421.0"/>
      <point x="372.0" y="1460.0"/>
      <point x="396.0" y="1459.0" type="qcurve" smooth="yes"/>
      <point x="428.0" y="1458.0"/>
      <point x="522.0" y="1381.0"/>
      <point x="564.0" y="1352.0" type="qcurve" smooth="yes"/>
      <point x="842.0" y="1173.0" type="line"/>
      <point x="825.0" y="1123.0" type="line"/>
    </contour>
  </outline>
</glyph>
<glyph name="b" format="2">
  <advance width="1459"/>
  <unicode hex="0062"/>
  <outline>
    <contour>
      <point x="121.0" y="157.0" type="qcurve" smooth="yes"/>
      <point x="216.0" y="633.0" type="line"/>
      <point x="380.0" y="1468.0" type="line"/>
      <point x="177.0" y="1512.0" type="line"/>
      <point x="183.0" y="1552.0" type="line"/>
      <point x="444.0" y="1602.0" type="line"/>
      <point x="477.0" y="1565.0" type="line"/>
      <point x="295.0" y="601.0" type="line"/>
      <point x="203.0" y="145.0" type="line" smooth="yes"/>
      <point x="191.0" y="85.0"/>
      <point x="330.0" y="46.0"/>
      <point x="409.0" y="47.0" type="qcurve" smooth="yes"/>
      <point x="747.0" y="52.0"/>
      <point x="1176.0" y="448.0"/>
      <point x="1176.0" y="707.0" type="qcurve" smooth="yes"/>
      <point x="1176.0" y="802.0"/>
      <point x="1049.0" y="941.0"/>
      <point x="944.0" y="939.0" type="qcurve" smooth="yes"/>
      <point x="796.0" y="938.0"/>
      <point x="468.0" y="826.0"/>
      <point x="314.0" y="730.0" type="qcurve"/>
      <point x="337.0" y="839.0" type="line"/>
      <point x="524.0" y="929.0"/>
      <point x="839.0" y="1028.0"/>
      <point x="985.0" y="1028.0" type="qcurve" smooth="yes"/>
      <point x="1130.0" y="1028.0"/>
      <point x="1291.0" y="850.0"/>
      <point x="1291.0" y="752.0" type="qcurve" smooth="yes"/>
      <point x="1291.0" y="415.0"/>
      <point x="697.0" y="-13.0"/>
      <point x="357.0" y="-13.0" type="qcurve" smooth="yes"/>
      <point x="211.0" y="-13.0"/>
      <point x="104.0" y="77.0"/>
    </contour>
  </outline>
</glyph>
<glyph name="c" format="2">
  <advance width="1318"/>
  <unicode hex="0063"/>
  <outline>
    <contour>
      <point x="19.0" y="503.0" type="qcurve" smooth="yes"/>
      <point x="71.0" y="738.0"/>
      <point x="515.0" y="1016.0"/>
      <point x="828.0" y="1016.0" type="qcurve" smooth="yes"/>
      <point x="972.0" y="1016.0"/>
      <point x="1180.0" y="923.0"/>
      <point x="1188.0" y="835.0" type="qcurve" smooth="yes"/>
      <point x="1194.0" y="758.0"/>
      <point x="1136.0" y="674.0"/>
      <point x="1081.0" y="661.0" type="qcurve"/>
      <point x="1045.0" y="682.0" type="line"/>
      <point x="1050.0" y="874.0" type="line" smooth="yes"/>
      <point x="1051.0" y="904.0"/>
      <point x="868.0" y="947.0"/>
      <point x="777.0" y="947.0" type="qcurve" smooth="yes"/>
      <point x="520.0" y="947.0"/>
      <point x="152.0" y="680.0"/>
      <point x="115.0" y="497.0" type="qcurve" smooth="yes"/>
      <point x="74.0" y="294.0"/>
      <point x="272.0" y="42.0"/>
      <point x="513.0" y="42.0" type="qcurve" smooth="yes"/>
      <point x="685.0" y="42.0"/>
      <point x="1021.0" y="181.0"/>
      <point x="1116.0" y="268.0" type="qcurve"/>
      <point x="1145.0" y="238.0" type="line"/>
      <point x="1148.0" y="209.0" type="line"/>
      <point x="1045.0" y="104.0"/>
      <point x="737.0" y="-17.0"/>
      <point x="509.0" y="-17.0" type="qcurve" smooth="yes"/>
      <point x="215.0" y="-17.0"/>
      <point x="-32.0" y="272.0"/>
    </contour>
  </outline>
</glyph>
<glyph name="f" format="2">
  <advance width="774"/>
  <unicode hex="0066"/>
  <outline>
    <contour>
      <point x="-260.0" y="-415.0" type="line" smooth="yes"/>
      <point x="-255.0" y="-372.0" type="line"/>
      <point x="-106.0" y="-376.0" type="line" smooth="yes"/>
      <point x="12.0" y="-382.0"/>
      <point x="107.0" y="-227.0"/>
      <point x="163.0" y="75.0" type="qcurve" smooth="yes"/>
      <point x="317.0" y="912.0" type="line"/>
      <point x="323.0" y="942.0" type="line"/>
      <point x="383.0" y="1255.0" type="line" smooth="yes"/>
      <point x="417.0" y="1431.0"/>
      <point x="595.0" y="1582.0"/>
      <point x="705.0" y="1582.0" type="qcurve" smooth="yes"/>
      <point x="795.0" y="1582.0"/>
      <point x="878.0" y="1508.0"/>
      <point x="878.0" y="1464.0" type="qcurve" smooth="yes"/>
      <point x="878.0" y="1438.0"/>
      <point x="856.0" y="1395.0"/>
      <point x="831.0" y="1395.0" type="qcurve" smooth="yes"/>
      <point x="821.0" y="1395.0"/>
      <point x="810.0" y="1412.0"/>
      <point x="811.0" y="1423.0" type="qcurve" smooth="yes"/>
      <point x="812.0" y="1447.0"/>
      <point x="760.0" y="1499.0"/>
      <point x="698.0" y="1499.0" type="qcurve" smooth="yes"/>
      <point x="605.0" y="1499.0"/>
      <point x="491.0" y="1370.0"/>
      <point x="468.0" y="1249.0" type="qcurve" smooth="yes"/>
      <point x="410.0" y="938.0" type="line"/>
      <point x="409.0" y="920.0" type="line"/>
      <point x="278.0" y="214.0" type="line" smooth="yes"/>
      <point x="200.0" y="-210.0"/>
      <point x="86.0" y="-447.0"/>
      <point x="-60.0" y="-447.0" type="qcurve"/>
    </contour>
    <contour>
      <point x="62.0" y="899.0" type="line"/>
      <point x="56.0" y="938.0" type="line"/>
      <point x="335.0" y="980.0" type="line"/>
      <point x="728.0" y="980.0" type="line"/>
      <point x="718.0" y="900.0" type="line"/>
      <point x="372.0" y="907.0" type="line"/>
      <point x="335.0" y="889.0" type="line"/>
    </contour>
  </outline>
</glyph>
<glyph name="g" format="2">
  <advance width="1551"/>
  <unicode hex="0067"/>
  <outline>
    <contour>
      <point x="60.0" y="262.0" type="qcurve" smooth="yes"/>
      <point x="52.0" y="565.0"/>
      <point x="599.0" y="994.0"/>
      <point x="946.0" y="994.0" type="qcurve" smooth="yes"/>
      <point x="1047.0" y="994.0"/>
      <point x="1168.0" y="979.0"/>
      <point x="1204.0" y="961.0" type="qcurve"/>
      <point x="1262.0" y="1015.0" type="line"/>
      <point x="1311.0" y="1015.0" type="line"/>
      <point x="1311.0" y="852.0" type="line"/>
      <point x="1253.0" y="632.0" type="line" smooth="yes"/>
      <point x="1200.0" y="418.0"/>
      <point x="1172.0" y="259.0"/>
      <point x="1123.0" y="55.0" type="qcurve" smooth="yes"/>
      <point x="1066.0" y="-219.0"/>
      <point x="605.0" y="-464.0"/>
      <point x="346.0" y="-464.0" type="qcurve"/>
      <point x="90.0" y="-424.0" type="line"/>
      <point x="90.0" y="-378.0" type="line"/>
      <point x="413.0" y="-384.0" type="line" smooth="yes"/>
      <point x="640.0" y="-389.0"/>
      <point x="985.0" y="-173.0"/>
      <point x="1043.0" y="47.0" type="qcurve" smooth="yes"/>
      <point x="1073.0" y="161.0" type="line"/>
      <point x="982.0" y="121.0"/>
      <point x="634.0" y="4.0"/>
      <point x="439.0" y="4.0" type="qcurve" smooth="yes"/>
      <point x="263.0" y="4.0"/>
      <point x="64.0" y="127.0"/>
    </contour>
    <contour>
      <point x="164.0" y="264.0" type="qcurve" smooth="yes"/>
      <point x="166.0" y="138.0"/>
      <point x="323.0" y="59.0"/>
      <point x="447.0" y="59.0" type="qcurve" smooth="yes"/>
      <point x="665.0" y="59.0"/>
      <point x="1087.0" y="240.0"/>
      <point x="1129.0" y="417.0" type="qcurve" smooth="yes"/>
      <point x="1227.0" y="852.0" type="line"/>
      <point x="1221.0" y="882.0"/>
      <point x="1066.0" y="926.0"/>
      <point x="894.0" y="926.0" type="qcurve" smooth="yes"/>
      <point x="593.0" y="926.0"/>
      <point x="160.0" y="504.0"/>
    </contour>
  </outline>
</glyph>
<glyph name="l" format="2">
  <advance width="707"/>
  <unicode hex="006C"/>
  <outline>
    <contour>
      <point x="205.0" y="-24.0" type="line"/>
      <point x="143.0" y="46.0" type="line"/>
      <point x="258.0" y="606.0" type="line"/>
      <point x="414.0" y="1470.0" type="line"/>
      <point x="201.0" y="1514.0" type="line"/>
      <point x="207.0" y="1554.0" type="line"/>
      <point x="478.0" y="1604.0" type="line"/>
      <point x="511.0" y="1567.0" type="line"/>
      <point x="329.0" y="588.0" type="line"/>
      <point x="237.0" y="87.0" type="line"/>
      <point x="468.0" y="108.0" type="line"/>
      <point x="468.0" y="56.0" type="line"/>
    </contour>
  </outline>
</glyph>
<glyph name="o" format="2">
  <advance width="1530"/>
  <unicode hex="006F"/>
  <outline>
    <contour>
      <point x="10.0" y="533.0" type="qcurve" smooth="yes"/>
      <point x="52.0" y="762.0"/>
      <point x="479.0" y="1029.0"/>
      <point x="785.0" y="1014.0" type="qcurve" smooth="yes"/>
      <point x="1091.0" y="999.0"/>
      <point x="1401.0" y="699.0"/>
      <point x="1364.0" y="472.0" type="qcurve" smooth="yes"/>
      <point x="1329.0" y="258.0"/>
      <point x="901.0" y="-31.0"/>
      <point x="593.0" y="-16.0" type="qcurve" smooth="yes"/>
      <point x="287.0" y="-1.0"/>
      <point x="-31.0" y="302.0"/>
    </contour>
    <contour>
      <point x="122.0" y="556.0" type="qcurve" smooth="yes"/>
      <point x="77.0" y="334.0"/>
      <point x="348.0" y="62.0"/>
      <point x="603.0" y="51.0" type="qcurve" smooth="yes"/>
      <point x="881.0" y="38.0"/>
      <point x="1231.0" y="292.0"/>
      <point x="1262.0" y="478.0" type="qcurve" smooth="yes"/>
      <point x="1297.0" y="685.0"/>
      <point x="1036.0" y="940.0"/>
      <point x="776.0" y="954.0" type="qcurve" smooth="yes"/>
      <point x="522.0" y="967.0"/>
      <point x="163.0" y="762.0"/>
    </contour>
  </outline>
</glyph>
<glyph name="p" format="2">
  <advance width="1492"/>
  <unicode hex="0070"/>
  <outline>
    <contour>
      <point x="-4.0" y="-375.0" type="line"/>
      <point x="202.0" y="576.0" type="line"/>
      <point x="234.0" y="753.0" type="line"/>
      <point x="132.0" y="983.0" type="line"/>
      <point x="177.0" y="1016.0" type="line"/>
      <point x="217.0" y="1016.0" type="line"/>
      <point x="321.0" y="758.0" type="line"/>
      <point x="444.0" y="845.0"/>
      <point x="828.0" y="1025.0"/>
      <point x="1011.0" y="1025.0" type="qcurve" smooth="yes"/>
      <point x="1144.0" y="1025.0"/>
      <point x="1324.0" y="847.0"/>
      <point x="1324.0" y="693.0" type="qcurve" smooth="yes"/>
      <point x="1324.0" y="394.0"/>
      <point x="786.0" y="30.0"/>
      <point x="426.0" y="30.0" type="qcurve" smooth="yes"/>
      <point x="334.0" y="30.0"/>
      <point x="195.0" y="43.0"/>
      <point x="173.0" y="51.0" type="qcurve"/>
      <point x="85.0" y="-325.0" type="line"/>
      <point x="339.0" y="-382.0" type="line"/>
      <point x="324.0" y="-428.0" type="line"/>
      <point x="83.0" y="-445.0" type="line"/>
    </contour>
    <contour>
      <point x="206.0" y="186.0" type="line"/>
      <point x="192.0" y="125.0"/>
      <point x="385.0" y="81.0"/>
      <point x="462.0" y="82.0" type="qcurve" smooth="yes"/>
      <point x="809.0" y="87.0"/>
      <point x="1206.0" y="462.0"/>
      <point x="1206.0" y="675.0" type="qcurve" smooth="yes"/>
      <point x="1206.0" y="799.0"/>
      <point x="1075.0" y="938.0"/>
      <point x="966.0" y="936.0" type="qcurve" smooth="yes"/>
      <point x="808.0" y="935.0"/>
      <point x="447.0" y="790.0"/>
      <point x="330.0" y="700.0" type="qcurve"/>
      <point x="298.0" y="574.0" type="line"/>
    </contour>
  </outline>
</glyph>
<glyph name="q" format="2">
  <advance width="1579"/>
  <unicode hex="0071"/>
  <outline>
    <contour>
      <point x="60.0" y="253.0" type="qcurve" smooth="yes"/>
      <point x="52.0" y="556.0"/>
      <point x="607.0" y="994.0"/>
      <point x="954.0" y="994.0" type="qcurve" smooth="yes"/>
      <point x="1065.0" y="994.0"/>
      <point x="1200.0" y="977.0"/>
      <point x="1242.0" y="955.0" type="qcurve"/>
      <point x="1270.0" y="1001.0" type="line"/>
      <point x="1319.0" y="1001.0" type="line"/>
      <point x="1315.0" y="820.0" type="line"/>
      <point x="1228.0" y="447.0" type="line"/>
      <point x="1065.0" y="-327.0" type="line"/>
      <point x="1284.0" y="-382.0" type="line"/>
      <point x="1269.0" y="-428.0" type="line"/>
      <point x="1049.0" y="-446.0" type="line"/>
      <point x="961.0" y="-377.0" type="line"/>
      <point x="1086.0" y="199.0" type="line"/>
      <point x="1078.0" y="200.0" type="line"/>
      <point x="947.0" y="116.0"/>
      <point x="630.0" y="5.0"/>
      <point x="435.0" y="5.0" type="qcurve" smooth="yes"/>
      <point x="259.0" y="5.0"/>
      <point x="64.0" y="118.0"/>
    </contour>
    <contour>
      <point x="160.0" y="265.0" type="qcurve" smooth="yes"/>
      <point x="162.0" y="139.0"/>
      <point x="319.0" y="60.0"/>
      <point x="443.0" y="60.0" type="qcurve" smooth="yes"/>
      <point x="661.0" y="60.0"/>
      <point x="1094.0" y="241.0"/>
      <point x="1142.0" y="418.0" type="qcurve" smooth="yes"/>
      <point x="1242.0" y="852.0" type="line"/>
      <point x="1236.0" y="882.0"/>
      <point x="1064.0" y="926.0"/>
      <point x="892.0" y="926.0" type="qcurve" smooth="yes"/>
      <point x="591.0" y="926.0"/>
      <point x="156.0" y="505.0"/>
    </contour>
  </outline>
</glyph>
<glyph name="s" format="2">
  <advance width="1244"/>
  <unicode hex="0073"/>
  <outline>
    <contour>
      <point x="70.0" y="178.0" type="qcurve" smooth="yes"/>
      <point x="70.0" y="258.0"/>
      <point x="145.0" y="310.0"/>
      <point x="187.0" y="310.0" type="qcurve" smooth="yes"/>
      <point x="211.0" y="310.0" type="line"/>
      <point x="212.0" y="135.0" type="line" smooth="yes"/>
      <point x="212.0" y="88.0"/>
      <point x="397.0" y="38.0"/>
      <point x="518.0" y="38.0" type="qcurve" smooth="yes"/>
      <point x="719.0" y="38.0"/>
      <point x="929.0" y="159.0"/>
      <point x="929.0" y="251.0" type="qcurve" smooth="yes"/>
      <point x="929.0" y="318.0"/>
      <point x="794.0" y="422.0"/>
      <point x="598.0" y="483.0" type="qcurve" smooth="yes"/>
      <point x="389.0" y="539.0"/>
      <point x="208.0" y="674.0"/>
      <point x="214.0" y="776.0" type="qcurve" smooth="yes"/>
      <point x="221.0" y="894.0"/>
      <point x="433.0" y="1012.0"/>
      <point x="676.0" y="1012.0" type="qcurve" smooth="yes"/>
      <point x="847.0" y="1012.0"/>
      <point x="1053.0" y="911.0"/>
      <point x="1053.0" y="839.0" type="qcurve" smooth="yes"/>
      <point x="1053.0" y="775.0"/>
      <point x="997.0" y="727.0"/>
      <point x="962.0" y="727.0" type="qcurve" smooth="yes"/>
      <point x="929.0" y="727.0" type="line"/>
      <point x="929.0" y="862.0" type="line" smooth="yes"/>
      <point x="929.0" y="906.0"/>
      <point x="752.0" y="957.0"/>
      <point x="644.0" y="957.0" type="qcurve" smooth="yes"/>
      <point x="460.0" y="957.0"/>
      <point x="299.0" y="871.0"/>
      <point x="299.0" y="788.0" type="qcurve" smooth="yes"/>
      <point x="299.0" y="736.0"/>
      <point x="437.0" y="614.0"/>
      <point x="629.0" y="559.0" type="qcurve" smooth="yes"/>
      <point x="817.0" y="503.0"/>
      <point x="1020.0" y="363.0"/>
      <point x="1020.0" y="267.0" type="qcurve"/>
      <point x="1018.0" y="148.0"/>
      <point x="759.0" y="-20.0"/>
      <point x="501.0" y="-20.0" type="qcurve" smooth="yes"/>
      <point x="297.0" y="-20.0"/>
      <point x="70.0" y="83.0"/>
    </contour>
  </outline>
</glyph>
<glyph name="t" format="2">
  <advance width="725"/>
  <unicode hex="0074"/>
  <outline>
    <contour>
      <point x="211.0" y="-15.0" type="line"/>
      <point x="142.0" y="51.0" type="line"/>
      <point x="224.0" y="512.0" type="line"/>
      <point x="284.0" y="868.0" type="line"/>
      <point x="73.0" y="880.0" type="line"/>
      <point x="80.0" y="919.0" type="line"/>
      <point x="277.0" y="946.0"/>
      <point x="370.0" y="1123.0"/>
      <point x="395.0" y="1237.0" type="qcurve"/>
      <point x="428.0" y="1237.0" type="line"/>
      <point x="437.0" y="1197.0" type="line"/>
      <point x="312.0" y="524.0" type="line"/>
      <point x="240.0" y="84.0" type="line"/>
      <point x="486.0" y="104.0" type="line"/>
      <point x="486.0" y="57.0" type="line"/>
    </contour>
    <contour>
      <point x="343.0" y="884.0" type="line"/>
      <point x="368.0" y="960.0" type="line"/>
      <point x="688.0" y="960.0" type="line"/>
      <point x="693.0" y="910.0" type="line"/>
    </contour>
  </outline>
</glyph>
<glyph name="u" format="2">
  <advance width="1640"/>
  <unicode hex="0075"/>
  <outline>
    <contour>
      <point x="1189.0" y="-10.0" type="line"/>
      <point x="1118.0" y="81.0" type="line"/>
      <point x="1123.0" y="278.0" type="line"/>
      <point x="1240.0" y="891.0" type="line"/>
      <point x="1188.0" y="994.0" type="line"/>
      <point x="1286.0" y="1021.0" type="line"/>
      <point x="1345.0" y="922.0" type="line"/>
      <point x="1218.0" y="362.0" type="line"/>
      <point x="1195.0" y="92.0" type="line"/>
      <point x="1429.0" y="92.0" type="line"/>
      <point x="1429.0" y="52.0" type="line"/>
    </contour>
    <contour>
      <point x="182.0" y="272.0" type="qcurve" smooth="yes"/>
      <point x="300.0" y="899.0" type="line"/>
      <point x="60.0" y="896.0" type="line"/>
      <point x="59.0" y="935.0" type="line"/>
      <point x="268.0" y="1002.0" type="line"/>
      <point x="335.0" y="1002.0" type="line"/>
      <point x="398.0" y="938.0" type="line"/>
      <point x="258.0" y="241.0" type="line" smooth="yes"/>
      <point x="241.0" y="158.0"/>
      <point x="337.0" y="60.0"/>
      <point x="453.0" y="60.0" type="qcurve" smooth="yes"/>
      <point x="600.0" y="60.0"/>
      <point x="1065.0" y="232.0"/>
      <point x="1182.0" y="338.0" type="qcurve"/>
      <point x="1202.0" y="306.0" type="line"/>
      <point x="1104.0" y="217.0"/>
      <point x="645.0" y="-7.0"/>
      <point x="468.0" y="-7.0" type="qcurve" smooth="yes"/>
      <point x="290.0" y="-7.0"/>
      <point x="155.0" y="126.0"/>
    </contour>
  </outline>
</glyph>
<glyph name="v" format="2">
  <advance width="1376"/>
  <unicode hex="0076"/>
  <outline>
    <contour>
      <point x="3.0" y="878.0" type="line"/>
      <point x="3.0" y="923.0" type="line"/>
      <point x="244.0" y="1001.0" type="line"/>
      <point x="277.0" y="1001.0" type="line"/>
      <point x="324.0" y="556.0" type="line"/>
      <point x="394.0" y="36.0" type="line"/>
      <point x="688.0" y="266.0"/>
      <point x="1102.0" y="732.0"/>
      <point x="1107.0" y="832.0" type="qcurve" smooth="yes"/>
      <point x="1111.0" y="864.0"/>
      <point x="1081.0" y="914.0"/>
      <point x="1081.0" y="950.0" type="qcurve" smooth="yes"/>
      <point x="1081.0" y="981.0"/>
      <point x="1128.0" y="1026.0"/>
      <point x="1176.0" y="1026.0" type="qcurve" smooth="yes"/>
      <point x="1227.0" y="1026.0"/>
      <point x="1271.0" y="972.0"/>
      <point x="1265.0" y="913.0" type="qcurve" smooth="yes"/>
      <point x="1256.0" y="814.0"/>
      <point x="867.0" y="340.0"/>
      <point x="411.0" y="-8.0" type="qcurve"/>
      <point x="318.0" y="-8.0" type="line"/>
      <point x="250.0" y="500.0" type="line"/>
      <point x="200.0" y="881.0" type="line"/>
    </contour>
  </outline>
</glyph>
<glyph name="w" format="2">
  <advance width="1972"/>
  <unicode hex="0077"/>
  <outline>
    <contour>
      <point x="3.0" y="878.0" type="line"/>
      <point x="5.0" y="923.0" type="line"/>
      <point x="243.0" y="1001.0" type="line"/>
      <point x="271.0" y="1001.0" type="line"/>
      <point x="316.0" y="556.0" type="line"/>
      <point x="385.0" y="56.0" type="line"/>
      <point x="539.0" y="193.0"/>
      <point x="824.0" y="500.0"/>
      <point x="941.0" y="589.0" type="qcurve"/>
      <point x="961.0" y="500.0" type="line"/>
      <point x="832.0" y="411.0"/>
      <point x="559.0" y="131.0"/>
      <point x="391.0" y="-8.0" type="qcurve"/>
      <point x="300.0" y="-8.0" type="line"/>
      <point x="239.0" y="500.0" type="line"/>
      <point x="193.0" y="881.0" type="line"/>
    </contour>
    <contour>
      <point x="721.0" y="923.0" type="line"/>
      <point x="896.0" y="1001.0" type="line"/>
      <point x="928.0" y="1001.0" type="line"/>
      <point x="981.0" y="556.0" type="line"/>
      <point x="1055.0" y="49.0" type="line"/>
      <point x="1323.0" y="278.0"/>
      <point x="1691.0" y="725.0"/>
      <point x="1696.0" y="823.0" type="qcurve" smooth="yes"/>
      <point x="1700.0" y="860.0"/>
      <point x="1674.0" y="917.0"/>
      <point x="1676.0" y="951.0" type="qcurve" smooth="yes"/>
      <point x="1678.0" y="986.0"/>
      <point x="1733.0" y="1026.0"/>
      <point x="1782.0" y="1026.0" type="qcurve" smooth="yes"/>
      <point x="1834.0" y="1023.0"/>
      <point x="1867.0" y="974.0"/>
      <point x="1861.0" y="917.0" type="qcurve" smooth="yes"/>
      <point x="1852.0" y="834.0"/>
      <point x="1511.0" y="358.0"/>
      <point x="1057.0" y="-8.0" type="qcurve"/>
      <point x="974.0" y="-8.0" type="line"/>
      <point x="908.0" y="500.0" type="line"/>
      <point x="860.0" y="881.0" type="line"/>
      <point x="719.0" y="878.0" type="line"/>
    </contour>
  </outline>
</glyph>
<glyph name="z" format="2">
  <advance width="1240"/>
  <unicode hex="007A"/>
  <outline>
    <contour>
      <point x="12.0" y="2.0" type="line"/>
      <point x="-17.0" y="47.0" type="line"/>
      <point x="121.0" y="166.0"/>
      <point x="433.0" y="437.0"/>
      <point x="530.0" y="518.0" type="qcurve" smooth="yes"/>
      <point x="601.0" y="579.0"/>
      <point x="867.0" y="824.0"/>
      <point x="996.0" y="930.0" type="qcurve"/>
      <point x="336.0" y="926.0" type="line"/>
      <point x="228.0" y="720.0" type="line"/>
      <point x="150.0" y="720.0" type="line"/>
      <point x="225.0" y="962.0" type="line"/>
      <point x="282.0" y="991.0" type="line"/>
      <point x="1112.0" y="992.0" type="line"/>
      <point x="1138.0" y="951.0" type="line"/>
      <point x="1025.0" y="834.0"/>
      <point x="773.0" y="610.0"/>
      <point x="648.0" y="499.0" type="qcurve" smooth="yes"/>
      <point x="571.0" y="442.0"/>
      <point x="285.0" y="193.0"/>
      <point x="199.0" y="133.0" type="qcurve"/>
      <point x="896.0" y="60.0" type="line"/>
      <point x="1041.0" y="253.0" type="line"/>
      <point x="1097.0" y="235.0" type="line"/>
      <point x="988.0" y="-5.0" type="line"/>
      <point x="937.0" y="-24.0" type="line"/>
      <point x="115.0" y="70.0" type="line"/>
    </contour>
  </outline>
</glyph>
<glyph name="braceright" format="2">
  <advance width="656"/>
  <unicode hex="007D"/>
  <outline>
    <contour>
      <point x="-284.0" y="-485.0" type="qcurve"/>
      <point x="-273.0" y="-431.0" type="line"/>
      <point x="-253.0" y="-432.0"/>
      <point x="-175.0" y="-433.0"/>
      <point x="-146.0" y="-433.0" type="qcurve" smooth="yes"/>
      <point x="-30.0" y="-433.0"/>
      <point x="112.0" y="-305.0"/>
      <point x="133.0" y="-181.0" type="qcurve" smooth="yes"/>
      <point x="150.0" y="-79.0"/>
      <point x="112.0" y="264.0"/>
      <point x="127.0" y="353.0" type="qcurve" smooth="yes"/>
      <point x="143.0" y="448.0"/>
      <point x="223.0" y="523.0"/>
      <point x="268.0" y="535.0" type="qcurve"/>
      <point x="212.0" y="557.0"/>
      <point x="194.0" y="651.0"/>
      <point x="208.0" y="721.0" type="qcurve" smooth="yes"/>
      <point x="226.0" y="812.0"/>
      <point x="410.0" y="1093.0"/>
      <point x="430.0" y="1195.0" type="qcurve" smooth="yes"/>
      <point x="454.0" y="1320.0"/>
      <point x="344.0" y="1449.0"/>
      <point x="252.0" y="1449.0" type="qcurve" smooth="yes"/>
      <point x="203.0" y="1449.0"/>
      <point x="125.0" y="1449.0"/>
      <point x="97.0" y="1447.0" type="qcurve"/>
      <point x="107.0" y="1499.0" type="line"/>
      <point x="130.0" y="1504.0"/>
      <point x="223.0" y="1510.0"/>
      <point x="251.0" y="1510.0" type="qcurve" smooth="yes"/>
      <point x="407.0" y="1510.0"/>
      <point x="539.0" y="1342.0"/>
      <point x="508.0" y="1183.0" type="qcurve" smooth="yes"/>
      <point x="485.0" y="1065.0"/>
      <point x="308.0" y="821.0"/>
      <point x="285.0" y="721.0" type="qcurve"/>
      <point x="266.0" y="584.0" type="line"/>
      <point x="526.0" y="574.0" type="line"/>
      <point x="507.0" y="506.0" type="line"/>
      <point x="344.0" y="506.0" type="line" smooth="yes"/>
      <point x="287.0" y="506.0"/>
      <point x="222.0" y="425.0"/>
      <point x="211.0" y="369.0" type="qcurve" smooth="yes"/>
      <point x="188.0" y="251.0"/>
      <point x="231.0" y="-62.0"/>
      <point x="215.0" y="-169.0" type="qcurve" smooth="yes"/>
      <point x="192.0" y="-327.0"/>
      <point x="1.0" y="-495.0"/>
      <point x="-156.0" y="-495.0" type="qcurve" smooth="yes"/>
      <point x="-177.0" y="-495.0"/>
      <point x="-266.0" y="-490.0"/>
    </contour>
  </outline>
</glyph>
<glyph name="registered" format="2">
  <advance width="2253"/>
  <unicode hex="00AE"/>
  <outline>
    <contour>
      <point x="59.0" y="673.0" type="qcurve" smooth="yes"/>
      <point x="59.0" y="1049.0"/>
      <point x="612.0" y="1568.0"/>
      <point x="1057.0" y="1568.0" type="qcurve" smooth="yes"/>
      <point x="1499.0" y="1568.0"/>
      <point x="2070.0" y="1075.0"/>
      <point x="2070.0" y="694.0" type="qcurve" smooth="yes"/>
      <point x="2070.0" y="276.0"/>
      <point x="1517.0" y="-244.0"/>
      <point x="1080.0" y="-244.0" type="qcurve" smooth="yes"/>
      <point x="630.0" y="-244.0"/>
      <point x="59.0" y="264.0"/>
    </contour>
    <contour>
      <point x="158.0" y="670.0" type="qcurve" smooth="yes"/>
      <point x="158.0" y="290.0"/>
      <point x="675.0" y="-155.0"/>
      <point x="1072.0" y="-155.0" type="qcurve" smooth="yes"/>
      <point x="1458.0" y="-155.0"/>
      <point x="1971.0" y="298.0"/>
      <point x="1971.0" y="688.0" type="qcurve" smooth="yes"/>
      <point x="1971.0" y="1029.0"/>
      <point x="1478.0" y="1479.0"/>
      <point x="1074.0" y="1479.0" type="qcurve" smooth="yes"/>
      <point x="689.0" y="1479.0"/>
      <point x="158.0" y="1019.0"/>
    </contour>
    <contour>
      <point x="682.0" y="176.0" type="line"/>
      <point x="683.0" y="216.0" type="line"/>
      <point x="800.0" y="240.0" type="line"/>
      <point x="811.0" y="723.0" type="line"/>
      <point x="800.0" y="1143.0" type="line"/>
      <point x="673.0" y="1166.0" type="line"/>
      <point x="673.0" y="1209.0" type="line"/>
      <point x="1126.0" y="1209.0" type="line" smooth="yes"/>
      <point x="1284.0" y="1209.0"/>
      <point x="1427.0" y="1062.0"/>
      <point x="1427.0" y="948.0" type="qcurve" smooth="yes"/>
      <point x="1427.0" y="821.0"/>
      <point x="1260.0" y="664.0"/>
      <point x="1134.0" y="664.0" type="qcurve" smooth="yes"/>
      <point x="1083.0" y="664.0"/>
      <point x="873.0" y="668.0"/>
      <point x="849.0" y="668.0" type="qcurve"/>
      <point x="849.0" y="713.0" type="line"/>
      <point x="1118.0" y="713.0" type="line" smooth="yes"/>
      <point x="1237.0" y="713.0"/>
      <point x="1349.0" y="838.0"/>
      <point x="1349.0" y="949.0" type="qcurve" smooth="yes"/>
      <point x="1349.0" y="1029.0"/>
      <point x="1250.0" y="1158.0"/>
      <point x="1114.0" y="1158.0" type="qcurve" smooth="yes"/>
      <point x="907.0" y="1158.0" type="line"/>
      <point x="886.0" y="1145.0" type="line"/>
      <point x="873.0" y="723.0" type="line"/>
      <point x="884.0" y="240.0" type="line"/>
      <point x="1056.0" y="216.0" type="line"/>
      <point x="1056.0" y="176.0" type="line"/>
    </contour>
    <contour>
      <point x="1130.0" y="680.0" type="line"/>
      <point x="1208.0" y="688.0" type="line"/>
      <point x="1422.0" y="361.0" type="line" smooth="yes"/>
      <point x="1489.0" y="258.0"/>
      <point x="1564.0" y="216.0"/>
      <point x="1606.0" y="216.0" type="qcurve"/>
      <point x="1606.0" y="176.0" type="line"/>
      <point x="1488.0" y="176.0" type="line"/>
      <point x="1446.0" y="190.0" type="line"/>
    </contour>
  </outline>
</glyph>
<glyph name="threesuperior" format="2">
  <advance width="865"/>
  <unicode hex="00B3"/>
  <outline>
    <contour>
      <point x="-20.0" y="730.0" type="qcurve" smooth="yes"/>
      <point x="-20.0" y="776.0"/>
      <point x="43.0" y="842.0"/>
      <point x="92.0" y="857.0" type="qcurve"/>
      <point x="125.0" y="826.0" type="line"/>
      <point x="125.0" y="818.0" type="line"/>
      <point x="104.0" y="811.0"/>
      <point x="66.0" y="780.0"/>
      <point x="66.0" y="745.0" type="qcurve" smooth="yes"/>
      <point x="66.0" y="697.0"/>
      <point x="179.0" y="637.0"/>
      <point x="263.0" y="637.0" type="qcurve" smooth="yes"/>
      <point x="405.0" y="637.0"/>
      <point x="593.0" y="783.0"/>
      <point x="602.0" y="895.0" type="qcurve" smooth="yes"/>
      <point x="611.0" y="999.0"/>
      <point x="418.0" y="1107.0"/>
      <point x="281.0" y="1105.0" type="qcurve" smooth="yes"/>
      <point x="208.0" y="1104.0" type="line"/>
      <point x="220.0" y="1151.0" type="line"/>
      <point x="296.0" y="1153.0" type="line" smooth="yes"/>
      <point x="433.0" y="1156.0"/>
      <point x="639.0" y="1265.0"/>
      <point x="639.0" y="1355.0" type="qcurve" smooth="yes"/>
      <point x="639.0" y="1411.0"/>
      <point x="565.0" y="1464.0"/>
      <point x="481.0" y="1464.0" type="qcurve" smooth="yes"/>
      <point x="410.0" y="1464.0"/>
      <point x="257.0" y="1406.0"/>
      <point x="213.0" y="1368.0" type="qcurve"/>
      <point x="176.0" y="1406.0" type="line"/>
      <point x="227.0" y="1454.0"/>
      <point x="399.0" y="1523.0"/>
      <point x="494.0" y="1523.0" type="qcurve" smooth="yes"/>
      <point x="612.0" y="1523.0"/>
      <point x="733.0" y="1438.0"/>
      <point x="733.0" y="1362.0" type="qcurve" smooth="yes"/>
      <point x="733.0" y="1263.0"/>
      <point x="586.0" y="1152.0"/>
      <point x="474.0" y="1137.0" type="qcurve"/>
      <point x="473.0" y="1133.0" type="line"/>
      <point x="581.0" y="1123.0"/>
      <point x="695.0" y="1016.0"/>
      <point x="695.0" y="904.0" type="qcurve" smooth="yes"/>
      <point x="695.0" y="759.0"/>
      <point x="442.0" y="583.0"/>
      <point x="263.0" y="583.0" type="qcurve" smooth="yes"/>
      <point x="122.0" y="583.0"/>
      <point x="-20.0" y="666.0"/>
    </contour>
  </outline>
</glyph>
<glyph name="periodcentered" format="2">
  <advance width="496"/>
  <unicode hex="00B7"/>
  <outline>
    <contour>
      <point x="147.0" y="696.0" type="qcurve" smooth="yes"/>
      <point x="147.0" y="732.0"/>
      <point x="197.0" y="785.0"/>
      <point x="236.0" y="785.0" type="qcurve" smooth="yes"/>
      <point x="275.0" y="785.0"/>
      <point x="325.0" y="732.0"/>
      <point x="325.0" y="696.0" type="qcurve" smooth="yes"/>
      <point x="325.0" y="661.0"/>
      <point x="275.0" y="608.0"/>
      <point x="236.0" y="608.0" type="qcurve" smooth="yes"/>
      <point x="197.0" y="608.0"/>
      <point x="147.0" y="661.0"/>
    </contour>
  </outline>
</glyph>
<glyph name="thorn" format="2">
  <advance width="1492"/>
  <unicode hex="00FE"/>
  <outline>
    <contour>
      <point x="-4.0" y="-375.0" type="line"/>
      <point x="226.0" y="640.0" type="line"/>
      <point x="397.0" y="1470.0" type="line"/>
      <point x="164.0" y="1512.0" type="line"/>
      <point x="170.0" y="1552.0" type="line"/>
      <point x="456.0" y="1602.0" type="line"/>
      <point x="489.0" y="1565.0" type="line"/>
      <point x="329.0" y="764.0" type="line"/>
      <point x="452.0" y="851.0"/>
      <point x="828.0" y="1025.0"/>
      <point x="1011.0" y="1025.0" type="qcurve" smooth="yes"/>
      <point x="1144.0" y="1025.0"/>
      <point x="1324.0" y="847.0"/>
      <point x="1324.0" y="693.0" type="qcurve" smooth="yes"/>
      <point x="1324.0" y="394.0"/>
      <point x="786.0" y="30.0"/>
      <point x="426.0" y="30.0" type="qcurve" smooth="yes"/>
      <point x="334.0" y="30.0"/>
      <point x="195.0" y="43.0"/>
      <point x="173.0" y="51.0" type="qcurve"/>
      <point x="85.0" y="-325.0" type="line"/>
      <point x="339.0" y="-382.0" type="line"/>
      <point x="324.0" y="-428.0" type="line"/>
      <point x="83.0" y="-445.0" type="line"/>
    </contour>
    <contour>
      <point x="206.0" y="186.0" type="line"/>
      <point x="192.0" y="125.0"/>
      <point x="385.0" y="81.0"/>
      <point x="462.0" y="82.0" type="qcurve" smooth="yes"/>
      <point x="809.0" y="87.0"/>
      <point x="1206.0" y="462.0"/>
      <point x="1206.0" y="675.0" type="qcurve" smooth="yes"/>
      <point x="1206.0" y="799.0"/>
      <point x="1075.0" y="938.0"/>
      <point x="966.0" y="936.0" type="qcurve" smooth="yes"/>
      <point x="808.0" y="935.0"/>
      <point x="436.0" y="788.0"/>
      <point x="319.0" y="698.0" type="qcurve"/>
      <point x="272.0" y="504.0" type="line"/>
    </contour>
  </outline>
</glyph>
<glyph name="doubleprimemod" format="2">
  <advance width="852"/>
  <unicode hex="02BA"/>
  <outline>
    <contour>
      <point x="287.0" y="1502.0" type="line"/>
      <point x="411.0" y="1502.0" type="line"/>
      <point x="244.0" y="991.0" type="line"/>
      <point x="182.0" y="996.0" type="line"/>
    </contour>
    <contour>
      <point x="647.0" y="1502.0" type="line"/>
      <point x="771.0" y="1502.0" type="line"/>
      <point x="604.0" y="991.0" type="line"/>
      <point x="542.0" y="996.0" type="line"/>
    </contour>
  </outline>
</glyph>
<glyph name="quotedblleft" format="2">
  <advance width="776"/>
  <unicode hex="201C"/>
  <outline>
    <contour>
      <point x="513.0" y="1520.0" type="line"/>
      <point x="476.0" y="1493.0"/>
      <point x="398.0" y="1403.0"/>
      <point x="382.0" y="1354.0" type="qcurve"/>
      <point x="424.0" y="1354.0"/>
      <point x="471.0" y="1310.0"/>
      <point x="471.0" y="1275.0" type="qcurve" smooth="yes"/>
      <point x="471.0" y="1241.0"/>
      <point x="422.0" y="1191.0"/>
      <point x="385.0" y="1191.0" type="qcurve" smooth="yes"/>
      <point x="351.0" y="1191.0"/>
      <point x="301.0" y="1242.0"/>
      <point x="301.0" y="1292.0" type="qcurve" smooth="yes"/>
      <point x="301.0" y="1353.0"/>
      <point x="412.0" y="1507.0"/>
      <point x="486.0" y="1553.0" type="qcurve"/>
    </contour>
    <contour>
      <point x="793.0" y="1520.0" type="line"/>
      <point x="756.0" y="1493.0"/>
      <point x="678.0" y="1403.0"/>
      <point x="662.0" y="1354.0" type="qcurve"/>
      <point x="704.0" y="1354.0"/>
      <point x="751.0" y="1310.0"/>
      <point x="751.0" y="1275.0" type="qcurve" smooth="yes"/>
      <point x="751.0" y="1241.0"/>
      <point x="702.0" y="1191.0"/>
      <point x="665.0" y="1191.0" type="qcurve" smooth="yes"/>
      <point x="631.0" y="1191.0"/>
      <point x="581.0" y="1242.0"/>
      <point x="581.0" y="1292.0" type="qcurve" smooth="yes"/>
      <point x="581.0" y="1353.0"/>
      <point x="692.0" y="1507.0"/>
      <point x="766.0" y="1553.0" type="qcurve"/>
    </contour>
  </outline>
</glyph>
<glyph name="colonsign" format="2">
  <advance width="1469"/>
  <unicode hex="20A1"/>
  <outline>
    <contour>
      <point x="620.0" y="-4.0" type="line"/>
      <point x="643.0" y="83.0" type="line"/>
      <point x="650.0" y="82.0" type="line"/>
      <point x="832.0" y="878.0" type="line"/>
      <point x="895.0" y="844.0" type="line"/>
      <point x="722.0" y="72.0" type="line"/>
      <point x="732.0" y="72.0" type="line"/>
      <point x="704.0" y="-11.0" type="line"/>
    </contour>
    <contour>
      <point x="977.0" y="1587.0" type="line"/>
      <point x="1076.0" y="1586.0" type="line"/>
      <point x="1037.0" y="1433.0" type="line"/>
      <point x="1023.0" y="1433.0" type="line"/>
      <point x="895.0" y="844.0" type="line"/>
      <point x="832.0" y="878.0" type="line"/>
      <point x="950.0" y="1437.0" type="line"/>
      <point x="940.0" y="1438.0" type="line"/>
    </contour>
    <contour>
      <point x="405.0" y="-4.0" type="line"/>
      <point x="414.0" y="62.0" type="line"/>
      <point x="421.0" y="61.0" type="line"/>
      <point x="612.0" y="878.0" type="line"/>
      <point x="675.0" y="844.0" type="line"/>
      <point x="493.0" y="51.0" type="line"/>
      <point x="503.0" y="51.0" type="line"/>
      <point x="489.0" y="-11.0" type="line"/>
    </contour>
    <contour>
      <point x="757.0" y="1587.0" type="line"/>
      <point x="856.0" y="1586.0" type="line"/>
      <point x="811.0" y="1404.0" type="line"/>
      <point x="797.0" y="1404.0" type="line"/>
      <point x="675.0" y="844.0" type="line"/>
      <point x="612.0" y="878.0" type="line"/>
      <point x="732.0" y="1438.0" type="line"/>
      <point x="722.0" y="1439.0" type="line"/>
    </contour>
    <contour>
      <point x="81.0" y="855.0" type="qcurve" smooth="yes"/>
      <point x="161.0" y="1160.0"/>
      <point x="626.0" y="1476.0"/>
      <point x="978.0" y="1438.0" type="qcurve" smooth="yes"/>
      <point x="1202.0" y="1413.0"/>
      <point x="1397.0" y="1169.0"/>
      <point x="1360.0" y="965.0" type="qcurve"/>
      <point x="1254.0" y="965.0" type="line"/>
      <point x="1288.0" y="1137.0"/>
      <point x="1136.0" y="1375.0"/>
      <point x="944.0" y="1399.0" type="qcurve" smooth="yes"/>
      <point x="661.0" y="1434.0"/>
      <point x="208.0" y="1091.0"/>
      <point x="149.0" y="844.0" type="qcurve" smooth="yes"/>
      <point x="84.0" y="571.0"/>
      <point x="290.0" y="140.0"/>
      <point x="586.0" y="120.0" type="qcurve" smooth="yes"/>
      <point x="803.0" y="110.0"/>
      <point x="1112.0" y="238.0"/>
      <point x="1223.0" y="363.0" type="qcurve"/>
      <point x="1222.0" y="377.0" type="line"/>
      <point x="1302.0" y="330.0" type="line"/>
      <point x="1189.0" y="196.0"/>
      <point x="826.0" y="43.0"/>
      <point x="552.0" y="70.0" type="qcurve" smooth="yes"/>
      <point x="222.0" y="103.0"/>
      <point x="-3.0" y="538.0"/>
    </contour>
  </outline>
</glyph>
<glyph name="kip" format="2">
  <advance width="1543"/>
  <unicode hex="20AD"/>
  <outline>
    <contour>
      <point x="1318.0" y="774.0" type="line"/>
      <point x="809.0" y="774.0" type="line"/>
      <point x="809.0" y="770.0" type="line"/>
      <point x="780.0" y="770.0" type="line"/>
      <point x="780.0" y="843.0" type="line"/>
      <point x="789.0" y="843.0" type="line"/>
      <point x="789.0" y="837.0" type="line"/>
      <point x="1328.0" y="837.0" type="line"/>
    </contour>
    <contour>
      <point x="77.0" y="774.0" type="line"/>
      <point x="82.0" y="836.0" type="line"/>
      <point x="303.0" y="836.0" type="line"/>
      <point x="303.0" y="843.0" type="line"/>
      <point x="240.0" y="843.0" type="line"/>
      <point x="170.0" y="770.0" type="line"/>
      <point x="293.0" y="770.0" type="line"/>
      <point x="293.0" y="774.0" type="line"/>
    </contour>
    <contour>
      <point x="-118.0" y="0.0" type="line"/>
      <point x="-98.0" y="48.0" type="line"/>
      <point x="110.0" y="73.0" type="line"/>
      <point x="274.0" y="858.0" type="line"/>
      <point x="371.0" y="1427.0" type="line"/>
      <point x="143.0" y="1452.0" type="line"/>
      <point x="144.0" y="1500.0" type="line"/>
      <point x="703.0" y="1500.0" type="line"/>
      <point x="685.0" y="1452.0" type="line"/>
      <point x="469.0" y="1427.0" type="line"/>
      <point x="356.0" y="826.0" type="line"/>
      <point x="203.0" y="73.0" type="line"/>
      <point x="434.0" y="48.0" type="line"/>
      <point x="429.0" y="0.0" type="line"/>
    </contour>
    <contour>
      <point x="212.0" y="509.0" type="line"/>
      <point x="242.0" y="606.0" type="line"/>
      <point x="1338.0" y="1442.0" type="line"/>
      <point x="1146.0" y="1450.0" type="line"/>
      <point x="1150.0" y="1500.0" type="line"/>
      <point x="1671.0" y="1500.0" type="line"/>
      <point x="1667.0" y="1450.0" type="line"/>
      <point x="1485.0" y="1442.0" type="line"/>
    </contour>
    <contour>
      <point x="726.0" y="970.0" type="line"/>
      <point x="809.0" y="1019.0" type="line"/>
      <point x="1245.0" y="73.0" type="line"/>
      <point x="1463.0" y="51.0" type="line"/>
      <point x="1458.0" y="0.0" type="line"/>
      <point x="918.0" y="0.0" type="line"/>
      <point x="923.0" y="51.0" type="line"/>
      <point x="1138.0" y="73.0" type="line"/>
    </contour>
  </outline>
</glyph>
<glyph name="manat" format="2">
  <advance width="1478"/>
  <unicode hex="20BC"/>
  <outline>
    <contour>
      <point x="568.0" y="278.0" type="line"/>
      <point x="636.0" y="662.0" type="line"/>
      <point x="762.0" y="1396.0" type="line"/>
      <point x="783.0" y="1571.0" type="line"/>
      <point x="879.0" y="1582.0" type="line"/>
      <point x="838.0" y="1396.0" type="line"/>
      <point x="728.0" y="762.0" type="line"/>
      <point x="660.0" y="313.0" type="line"/>
    </contour>
    <contour>
      <point x="1274.0" y="34.0" type="line"/>
      <point x="1268.0" y="0.0" type="line"/>
      <point x="806.0" y="0.0" type="line"/>
      <point x="812.0" y="34.0" type="line"/>
      <point x="998.0" y="60.0" type="line"/>
      <point x="1114.0" y="610.0" type="line" smooth="yes"/>
      <point x="1133.0" y="702.0"/>
      <point x="1166.0" y="960.0"/>
      <point x="1165.0" y="1037.0" type="qcurve" smooth="yes"/>
      <point x="1164.0" y="1188.0"/>
      <point x="983.0" y="1364.0"/>
      <point x="792.0" y="1364.0" type="qcurve" smooth="yes"/>
      <point x="608.0" y="1364.0"/>
      <point x="333.0" y="1179.0"/>
      <point x="276.0" y="955.0" type="qcurve" smooth="yes"/>
      <point x="224.0" y="706.0" type="line"/>
      <point x="113.0" y="60.0" type="line"/>
      <point x="325.0" y="34.0" type="line"/>
      <point x="319.0" y="0.0" type="line"/>
      <point x="-180.0" y="0.0" type="line"/>
      <point x="-174.0" y="34.0" type="line"/>
      <point x="16.0" y="60.0" type="line"/>
      <point x="140.0" y="706.0" type="line"/>
      <point x="188.0" y="956.0" type="line" smooth="yes"/>
      <point x="236.0" y="1206.0"/>
      <point x="570.0" y="1426.0"/>
      <point x="807.0" y="1426.0" type="qcurve" smooth="yes"/>
      <point x="1028.0" y="1426.0"/>
      <point x="1234.0" y="1222.0"/>
      <point x="1244.0" y="1060.0" type="qcurve" smooth="yes"/>
      <point x="1249.0" y="980.0"/>
      <point x="1226.0" y="789.0"/>
      <point x="1191.0" y="610.0" type="qcurve" smooth="yes"/>
      <point x="1086.0" y="60.0" type="line"/>
    </contour>
  </outline>
</glyph>
<glyph name="rightanglebracket" format="2">
  <advance width="1161"/>
  <unicode hex="27E9"/>
  <outline>
    <contour>
      <point x="-137.0" y="-151.0" type="line"/>
      <point x="-163.0" y="-99.0" type="line"/>
      <point x="916.0" y="720.0" type="line"/>
      <point x="165.0" y="1476.0" type="line"/>
      <point x="182.0" y="1496.0" type="line"/>
      <point x="999.0" y="737.0" type="line"/>
      <point x="999.0" y="691.0" type="line"/>
    </contour>
  </outline>
</glyph>
<glyph name="fl" format="2">
  <advance width="1354"/>
  <unicode hex="FB02"/>
  <outline>
    <contour>
      <point x="-262.0" y="-415.0" type="line"/>
      <point x="-255.0" y="-372.0" type="line"/>
      <point x="-106.0" y="-376.0" type="line" smooth="yes"/>
      <point x="12.0" y="-382.0"/>
      <point x="107.0" y="-227.0"/>
      <point x="155.0" y="28.0" type="qcurve" smooth="yes"/>
      <point x="317.0" y="912.0" type="line"/>
      <point x="323.0" y="942.0" type="line"/>
      <point x="397.0" y="1304.0" type="line" smooth="yes"/>
      <point x="416.0" y="1403.0"/>
      <point x="588.0" y="1579.0"/>
      <point x="738.0" y="1582.0" type="qcurve" smooth="yes"/>
      <point x="875.0" y="1585.0"/>
      <point x="1001.0" y="1491.0"/>
      <point x="1001.0" y="1437.0" type="qcurve" smooth="yes"/>
      <point x="1001.0" y="1399.0"/>
      <point x="989.0" y="1365.0"/>
      <point x="964.0" y="1365.0" type="qcurve" smooth="yes"/>
      <point x="944.0" y="1365.0"/>
      <point x="935.0" y="1395.0"/>
      <point x="934.0" y="1406.0" type="qcurve" smooth="yes"/>
      <point x="931.0" y="1440.0"/>
      <point x="833.0" y="1499.0"/>
      <point x="731.0" y="1499.0" type="qcurve" smooth="yes"/>
      <point x="598.0" y="1499.0"/>
      <point x="489.0" y="1341.0"/>
      <point x="478.0" y="1298.0" type="qcurve" smooth="yes"/>
      <point x="410.0" y="938.0" type="line"/>
      <point x="409.0" y="920.0" type="line"/>
      <point x="269.0" y="168.0" type="line" smooth="yes"/>
      <point x="199.0" y="-210.0"/>
      <point x="86.0" y="-447.0"/>
      <point x="-60.0" y="-447.0" type="qcurve"/>
    </contour>
    <contour>
      <point x="62.0" y="899.0" type="line"/>
      <point x="56.0" y="938.0" type="line"/>
      <point x="335.0" y="976.0" type="line"/>
      <point x="1023.0" y="976.0" type="line"/>
      <point x="1013.0" y="900.0" type="line"/>
      <point x="372.0" y="907.0" type="line"/>
      <point x="335.0" y="889.0" type="line"/>
    </contour>
    <contour>
      <point x="879.0" y="-24.0" type="line"/>
      <point x="817.0" y="46.0" type="line"/>
      <point x="932.0" y="606.0" type="line"/>
      <point x="1079.0" y="1432.0" type="line"/>
      <point x="866.0" y="1476.0" type="line"/>
      <point x="872.0" y="1516.0" type="line"/>
      <point x="1143.0" y="1566.0" type="line"/>
      <point x="1176.0" y="1529.0" type="line"/>
      <point x="1003.0" y="588.0" type="line"/>
      <point x="911.0" y="87.0" type="line"/>
      <point x="1142.0" y="108.0" type="line"/>
      <point x="1142.0" y="56.0" type="line"/>
    </contour>
  </outline>
</glyph>
<glyph name="f_f_l" format="2">
  <advance width="2077"/>
  <unicode hex="FB04"/>
  <outline>
    <contour>
      <point x="-260.0" y="-415.0" type="line" smooth="yes"/>
      <point x="-255.0" y="-372.0" type="line"/>
      <point x="-106.0" y="-376.0" type="line" smooth="yes"/>
      <point x="12.0" y="-382.0"/>
      <point x="107.0" y="-227.0"/>
      <point x="163.0" y="75.0" type="qcurve" smooth="yes"/>
      <point x="317.0" y="912.0" type="line"/>
      <point x="323.0" y="942.0" type="line"/>
      <point x="370.0" y="1200.0" type="line" smooth="yes"/>
      <point x="402.0" y="1376.0"/>
      <point x="582.0" y="1527.0"/>
      <point x="692.0" y="1527.0" type="qcurve" smooth="yes"/>
      <point x="782.0" y="1527.0"/>
      <point x="865.0" y="1453.0"/>
      <point x="865.0" y="1409.0" type="qcurve" smooth="yes"/>
      <point x="865.0" y="1383.0"/>
      <point x="843.0" y="1340.0"/>
      <point x="818.0" y="1340.0" type="qcurve" smooth="yes"/>
      <point x="808.0" y="1340.0"/>
      <point x="797.0" y="1357.0"/>
      <point x="798.0" y="1368.0" type="qcurve" smooth="yes"/>
      <point x="799.0" y="1392.0"/>
      <point x="747.0" y="1444.0"/>
      <point x="685.0" y="1444.0" type="qcurve" smooth="yes"/>
      <point x="592.0" y="1444.0"/>
      <point x="476.0" y="1315.0"/>
      <point x="455.0" y="1194.0" type="qcurve" smooth="yes"/>
      <point x="410.0" y="938.0" type="line"/>
      <point x="409.0" y="920.0" type="line"/>
      <point x="278.0" y="214.0" type="line" smooth="yes"/>
      <point x="200.0" y="-210.0"/>
      <point x="86.0" y="-447.0"/>
      <point x="-60.0" y="-447.0" type="qcurve"/>
    </contour>
    <contour>
      <point x="474.0" y="-356.0" type="line" smooth="yes"/>
      <point x="479.0" y="-313.0" type="line"/>
      <point x="628.0" y="-317.0" type="line" smooth="yes"/>
      <point x="746.0" y="-323.0"/>
      <point x="842.0" y="-168.0"/>
      <point x="897.0" y="134.0" type="qcurve" smooth="yes"/>
      <point x="1040.0" y="912.0" type="line"/>
      <point x="1046.0" y="942.0" type="line"/>
      <point x="1120.0" y="1304.0" type="line" smooth="yes"/>
      <point x="1139.0" y="1403.0"/>
      <point x="1311.0" y="1579.0"/>
      <point x="1461.0" y="1582.0" type="qcurve" smooth="yes"/>
      <point x="1598.0" y="1585.0"/>
      <point x="1724.0" y="1491.0"/>
      <point x="1724.0" y="1437.0" type="qcurve" smooth="yes"/>
      <point x="1724.0" y="1399.0"/>
      <point x="1712.0" y="1365.0"/>
      <point x="1687.0" y="1365.0" type="qcurve" smooth="yes"/>
      <point x="1667.0" y="1365.0"/>
      <point x="1658.0" y="1395.0"/>
      <point x="1657.0" y="1406.0" type="qcurve" smooth="yes"/>
      <point x="1654.0" y="1440.0"/>
      <point x="1556.0" y="1499.0"/>
      <point x="1454.0" y="1499.0" type="qcurve" smooth="yes"/>
      <point x="1321.0" y="1499.0"/>
      <point x="1212.0" y="1341.0"/>
      <point x="1201.0" y="1298.0" type="qcurve" smooth="yes"/>
      <point x="1133.0" y="938.0" type="line"/>
      <point x="1132.0" y="920.0" type="line"/>
      <point x="1012.0" y="273.0" type="line" smooth="yes"/>
      <point x="934.0" y="-151.0"/>
      <point x="820.0" y="-388.0"/>
      <point x="674.0" y="-388.0" type="qcurve"/>
    </contour>
    <contour>
      <point x="62.0" y="899.0" type="line"/>
      <point x="56.0" y="938.0" type="line"/>
      <point x="335.0" y="974.0" type="line"/>
      <point x="1453.0" y="974.0" type="line"/>
      <point x="1443.0" y="900.0" type="line"/>
      <point x="372.0" y="900.0" type="line"/>
      <point x="335.0" y="889.0" type="line"/>
    </contour>
    <contour>
      <point x="1602.0" y="-24.0" type="line"/>
      <point x="1540.0" y="46.0" type="line"/>
      <point x="1655.0" y="606.0" type="line"/>
      <point x="1802.0" y="1432.0" type="line"/>
      <point x="1589.0" y="1476.0" type="line"/>
      <point x="1595.0" y="1516.0" type="line"/>
      <point x="1866.0" y="1566.0" type="line"/>
      <point x="1899.0" y="1529.0" type="line"/>
      <point x="1726.0" y="588.0" type="line"/>
      <point x="1634.0" y="87.0" type="line"/>
      <point x="1865.0" y="108.0" type="line"/>
      <point x="1865.0" y="56.0" type="line"/>
    </contour>
  </outline>
</glyph>
<glyph name="circumflexcombstack.case" format="2">
  <advance width="1024"/>
  <outline>
    <contour>
      <point x="770.0" y="1970.0" type="qcurve" smooth="yes"/>
      <point x="794.0" y="1970.0"/>
      <point x="838.0" y="1921.0"/>
      <point x="861.0" y="1879.0" type="qcurve" smooth="yes"/>
      <point x="1037.0" y="1629.0" type="line"/>
      <point x="988.0" y="1599.0" type="line"/>
      <point x="758.0" y="1854.0" type="line"/>
      <point x="369.0" y="1597.0" type="line"/>
      <point x="335.0" y="1637.0" type="line"/>
      <point x="637.0" y="1879.0" type="line" smooth="yes"/>
      <point x="691.0" y="1924.0"/>
      <point x="745.0" y="1970.0"/>
    </contour>
  </outline>
</glyph>
<glyph name="dieresiscombstack.case" format="2">
  <advance width="1024"/>
  <outline>
    <contour>
      <point x="336.0" y="1728.0" type="qcurve" smooth="yes"/>
      <point x="336.0" y="1774.0"/>
      <point x="378.0" y="1815.0"/>
      <point x="427.0" y="1815.0" type="qcurve" smooth="yes"/>
      <point x="470.0" y="1815.0"/>
      <point x="516.0" y="1768.0"/>
      <point x="516.0" y="1728.0" type="qcurve" smooth="yes"/>
      <point x="516.0" y="1681.0"/>
      <point x="477.0" y="1640.0"/>
      <point x="427.0" y="1640.0" type="qcurve" smooth="yes"/>
      <point x="383.0" y="1640.0"/>
      <point x="336.0" y="1686.0"/>
    </contour>
    <contour>
      <point x="670.0" y="1728.0" type="qcurve" smooth="yes"/>
      <point x="670.0" y="1774.0"/>
      <point x="710.0" y="1815.0"/>
      <point x="759.0" y="1815.0" type="qcurve" smooth="yes"/>
      <point x="802.0" y="1815.0"/>
      <point x="849.0" y="1768.0"/>
      <point x="849.0" y="1728.0" type="qcurve" smooth="yes"/>
      <point x="849.0" y="1681.0"/>
      <point x="809.0" y="1640.0"/>
      <point x="759.0" y="1640.0" type="qcurve" smooth="yes"/>
      <point x="715.0" y="1640.0"/>
      <point x="670.0" y="1686.0"/>
    </contour>
  </outline>
</glyph>
<glyph name="five.lc" format="2">
  <advance width="1095"/>
  <outline>
    <contour>
      <point x="890.0" y="107.0" type="qcurve" smooth="yes"/>
      <point x="887.0" y="250.0"/>
      <point x="604.0" y="406.0"/>
      <point x="364.0" y="387.0" type="qcurve" smooth="yes"/>
      <point x="179.0" y="372.0" type="line"/>
      <point x="136.0" y="408.0" type="line"/>
      <point x="295.0" y="990.0" type="line"/>
      <point x="333.0" y="1021.0" type="line"/>
      <point x="1078.0" y="1021.0" type="line"/>
      <point x="1069.0" y="956.0" type="line"/>
      <point x="386.0" y="956.0" type="line"/>
      <point x="374.0" y="946.0" type="line"/>
      <point x="323.0" y="770.0"/>
      <point x="235.0" y="464.0"/>
      <point x="223.0" y="427.0" type="qcurve"/>
      <point x="446.0" y="460.0" type="line"/>
      <point x="700.0" y="457.0"/>
      <point x="994.0" y="271.0"/>
      <point x="999.0" y="109.0" type="qcurve" smooth="yes"/>
      <point x="1006.0" y="-111.0"/>
      <point x="513.0" y="-386.0"/>
      <point x="98.0" y="-386.0" type="qcurve" smooth="yes"/>
      <point x="40.0" y="-386.0"/>
      <point x="-61.0" y="-379.0"/>
      <point x="-107.0" y="-372.0" type="qcurve"/>
      <point x="-87.0" y="-320.0" type="line"/>
      <point x="-37.0" y="-325.0"/>
      <point x="41.0" y="-328.0"/>
      <point x="92.0" y="-328.0" type="qcurve" smooth="yes"/>
      <point x="447.0" y="-328.0"/>
      <point x="897.0" y="-83.0"/>
    </contour>
  </outline>
</glyph>
<glyph name="horizontalbarlc" format="2">
  <advance width="888"/>
  <outline>
    <contour>
      <point x="371.0" y="717.0" type="line"/>
      <point x="27.0" y="717.0" type="line"/>
      <point x="44.0" y="782.0" type="line"/>
      <point x="375.0" y="782.0" type="line"/>
      <point x="740.0" y="782.0" type="line"/>
      <point x="726.0" y="717.0" type="line"/>
    </contour>
  </outline>
</glyph>
<glyph name="horncomb.case" format="2">
  <advance width="1024"/>
  <outline>
    <contour>
      <point x="445.0" y="1433.0" type="line"/>
      <point x="497.0" y="1433.0"/>
      <point x="589.0" y="1433.0"/>
      <point x="652.0" y="1433.0" type="qcurve" smooth="yes"/>
      <point x="750.0" y="1433.0"/>
      <point x="859.0" y="1492.0"/>
      <point x="872.0" y="1542.0" type="qcurve" smooth="yes"/>
      <point x="883.0" y="1583.0"/>
      <point x="881.0" y="1652.0"/>
      <point x="875.0" y="1711.0" type="qcurve"/>
      <point x="932.0" y="1711.0" type="line"/>
      <point x="933.0" y="1683.0"/>
      <point x="948.0" y="1676.0"/>
      <point x="962.0" y="1662.0" type="qcurve" smooth="yes"/>
      <point x="981.0" y="1511.0"/>
      <point x="815.0" y="1379.0"/>
      <point x="663.0" y="1379.0" type="qcurve" smooth="yes"/>
      <point x="603.0" y="1379.0"/>
      <point x="470.0" y="1394.0"/>
      <point x="434.0" y="1405.0" type="qcurve"/>
    </contour>
  </outline>
</glyph>
<glyph name="seven.lc" format="2">
  <advance width="1204"/>
  <outline>
    <contour>
      <point x="119.0" y="767.0" type="line"/>
      <point x="219.0" y="1016.0" type="line"/>
      <point x="1219.0" y="1016.0" type="line"/>
      <point x="1239.0" y="976.0" type="line"/>
      <point x="900.0" y="680.0"/>
      <point x="382.0" y="-71.0"/>
      <point x="270.0" y="-364.0" type="qcurve"/>
      <point x="176.0" y="-394.0" type="line"/>
      <point x="144.0" y="-369.0" type="line"/>
      <point x="291.0" y="-33.0"/>
      <point x="830.0" y="712.0"/>
      <point x="1077.0" y="938.0" type="qcurve"/>
      <point x="1060.0" y="951.0" type="line"/>
      <point x="300.0" y="951.0" type="line"/>
      <point x="189.0" y="767.0" type="line"/>
    </contour>
  </outline>
</glyph>
<glyph name="zero.lc" format="2">
  <advance width="1553"/>
  <outline>
    <contour>
      <point x="78.0" y="579.0" type="qcurve" smooth="yes"/>
      <point x="117.0" y="803.0"/>
      <point x="532.0" y="1076.0"/>
      <point x="857.0" y="1064.0" type="qcurve" smooth="yes"/>
      <point x="1178.0" y="1053.0"/>
      <point x="1500.0" y="694.0"/>
      <point x="1464.0" y="487.0" type="qcurve" smooth="yes"/>
      <point x="1425.0" y="263.0"/>
      <point x="1007.0" y="-25.0"/>
      <point x="684.0" y="-19.0" type="qcurve" smooth="yes"/>
      <point x="378.0" y="-13.0"/>
      <point x="36.0" y="337.0"/>
    </contour>
    <contour>
      <point x="175.0" y="565.0" type="qcurve" smooth="yes"/>
      <point x="144.0" y="368.0"/>
      <point x="400.0" y="58.0"/>
      <point x="686.0" y="49.0" type="qcurve" smooth="yes"/>
      <point x="976.0" y="40.0"/>
      <point x="1342.0" y="305.0"/>
      <point x="1370.0" y="511.0" type="qcurve" smooth="yes"/>
      <point x="1396.0" y="702.0"/>
      <point x="1112.0" y="994.0"/>
      <point x="844.0" y="1003.0" type="qcurve" smooth="yes"/>
      <point x="567.0" y="1013.0"/>
      <point x="207.0" y="769.0"/>
    </contour>
  </outline>
</glyph>
